<svg width="12" height="26" viewBox="0 0 12 26" fill="none" xmlns="http://www.w3.org/2000/svg">
<path d="M11.6775 2.19214C11.7805 2.0681 11.8611 1.92219 11.9145 1.76273C11.968 1.60328 11.9933 1.43341 11.9891 1.26281C11.9848 1.09222 11.9511 0.924249 11.8898 0.768489C11.8285 0.612729 11.7409 0.47223 11.6318 0.355015C11.5228 0.237801 11.3946 0.146165 11.2545 0.0853407C11.1143 0.0245162 10.9651 -0.00430612 10.8151 0.000519697C10.6652 0.00534551 10.5176 0.0437248 10.3807 0.113466C10.2438 0.183208 10.1204 0.282945 10.0174 0.406985L0.312101 12.1001C0.111675 12.3414 0 12.6607 0 12.9927C0 13.3247 0.111675 13.644 0.312101 13.8853L10.0174 25.5797C10.1197 25.7065 10.2431 25.8088 10.3805 25.8808C10.5179 25.9528 10.6665 25.9931 10.8177 25.9992C10.9688 26.0053 11.1196 25.9772 11.2611 25.9164C11.4026 25.8557 11.5321 25.7636 11.6421 25.6454C11.7521 25.5272 11.8403 25.3854 11.9017 25.2281C11.9631 25.0708 11.9964 24.9011 11.9997 24.7291C12.003 24.557 11.9762 24.3859 11.9209 24.2257C11.8656 24.0655 11.7829 23.9194 11.6775 23.7959L2.71215 12.9927L11.6775 2.19214Z" fill="black"/>
</svg>
