<svg width="11" height="12" viewBox="0 0 11 12" fill="none" xmlns="http://www.w3.org/2000/svg">
<path d="M8.89616 1.83341H7.85449V1.31258C7.85449 1.17445 7.79962 1.04197 7.70194 0.944297C7.60427 0.846621 7.47179 0.791748 7.33366 0.791748C7.19552 0.791748 7.06305 0.846621 6.96537 0.944297C6.8677 1.04197 6.81283 1.17445 6.81283 1.31258V1.83341H3.68783V1.31258C3.68783 1.17445 3.63295 1.04197 3.53528 0.944297C3.4376 0.846621 3.30513 0.791748 3.16699 0.791748C3.02886 0.791748 2.89638 0.846621 2.79871 0.944297C2.70103 1.04197 2.64616 1.17445 2.64616 1.31258V1.83341H1.60449C1.19009 1.83341 0.792663 1.99803 0.499638 2.29106C0.206612 2.58409 0.0419922 2.98151 0.0419922 3.39591V9.64591C0.0419922 10.0603 0.206612 10.4577 0.499638 10.7508C0.792663 11.0438 1.19009 11.2084 1.60449 11.2084H8.89616C9.31056 11.2084 9.70799 11.0438 10.001 10.7508C10.294 10.4577 10.4587 10.0603 10.4587 9.64591V3.39591C10.4587 2.98151 10.294 2.58409 10.001 2.29106C9.70799 1.99803 9.31056 1.83341 8.89616 1.83341ZM9.41699 9.64591C9.41699 9.78405 9.36212 9.91652 9.26444 10.0142C9.16677 10.1119 9.03429 10.1667 8.89616 10.1667H1.60449C1.46636 10.1667 1.33388 10.1119 1.23621 10.0142C1.13853 9.91652 1.08366 9.78405 1.08366 9.64591V6.00008H9.41699V9.64591ZM9.41699 4.95841H1.08366V3.39591C1.08366 3.25778 1.13853 3.12531 1.23621 3.02763C1.33388 2.92995 1.46636 2.87508 1.60449 2.87508H2.64616V3.39591C2.64616 3.53405 2.70103 3.66652 2.79871 3.7642C2.89638 3.86187 3.02886 3.91675 3.16699 3.91675C3.30513 3.91675 3.4376 3.86187 3.53528 3.7642C3.63295 3.66652 3.68783 3.53405 3.68783 3.39591V2.87508H6.81283V3.39591C6.81283 3.53405 6.8677 3.66652 6.96537 3.7642C7.06305 3.86187 7.19552 3.91675 7.33366 3.91675C7.47179 3.91675 7.60427 3.86187 7.70194 3.7642C7.79962 3.66652 7.85449 3.53405 7.85449 3.39591V2.87508H8.89616C9.03429 2.87508 9.16677 2.92995 9.26444 3.02763C9.36212 3.12531 9.41699 3.25778 9.41699 3.39591V4.95841Z" fill="#4A4A4A"/>
</svg>
