<svg width="30" height="27" viewBox="0 0 30 27" fill="none" xmlns="http://www.w3.org/2000/svg">
<path d="M26.5385 3.46154H22.5404L20.5745 0.513462C20.4692 0.355603 20.3266 0.226158 20.1593 0.136595C19.992 0.047031 19.8052 0.000113949 19.6154 0H10.3846C10.1948 0.000113949 10.008 0.047031 9.84074 0.136595C9.67343 0.226158 9.5308 0.355603 9.42548 0.513462L7.45817 3.46154H3.46154C2.54348 3.46154 1.66303 3.82624 1.01386 4.4754C0.364697 5.12456 0 6.00502 0 6.92308V23.0769C0 23.995 0.364697 24.8754 1.01386 25.5246C1.66303 26.1738 2.54348 26.5385 3.46154 26.5385H26.5385C27.4565 26.5385 28.337 26.1738 28.9861 25.5246C29.6353 24.8754 30 23.995 30 23.0769V6.92308C30 6.00502 29.6353 5.12456 28.9861 4.4754C28.337 3.82624 27.4565 3.46154 26.5385 3.46154ZM27.6923 23.0769C27.6923 23.3829 27.5707 23.6764 27.3544 23.8928C27.138 24.1092 26.8445 24.2308 26.5385 24.2308H3.46154C3.15552 24.2308 2.86203 24.1092 2.64565 23.8928C2.42926 23.6764 2.30769 23.3829 2.30769 23.0769V6.92308C2.30769 6.61706 2.42926 6.32357 2.64565 6.10718C2.86203 5.8908 3.15552 5.76923 3.46154 5.76923H8.07692C8.26694 5.76935 8.45404 5.72255 8.62161 5.63298C8.78918 5.5434 8.93204 5.41383 9.0375 5.25577L11.0019 2.30769H18.9966L20.9625 5.25577C21.068 5.41383 21.2108 5.5434 21.3784 5.63298C21.546 5.72255 21.7331 5.76935 21.9231 5.76923H26.5385C26.8445 5.76923 27.138 5.8908 27.3544 6.10718C27.5707 6.32357 27.6923 6.61706 27.6923 6.92308V23.0769ZM15 8.07692C13.7448 8.07692 12.5179 8.44912 11.4743 9.14644C10.4306 9.84377 9.61724 10.8349 9.13692 11.9945C8.65659 13.1541 8.53092 14.4301 8.77579 15.6611C9.02065 16.8922 9.62507 18.023 10.5126 18.9105C11.4001 19.798 12.5309 20.4024 13.7619 20.6473C14.993 20.8922 16.269 20.7665 17.4286 20.2862C18.5882 19.8058 19.5793 18.9924 20.2766 17.9488C20.974 16.9052 21.3462 15.6782 21.3462 14.4231C21.3442 12.7406 20.675 11.1275 19.4853 9.93778C18.2956 8.74806 16.6825 8.07883 15 8.07692ZM15 18.4615C14.2013 18.4615 13.4205 18.2247 12.7564 17.7809C12.0922 17.3372 11.5746 16.7065 11.2689 15.9685C10.9633 15.2306 10.8833 14.4186 11.0391 13.6352C11.195 12.8518 11.5796 12.1322 12.1444 11.5675C12.7092 11.0027 13.4288 10.618 14.2121 10.4622C14.9955 10.3064 15.8075 10.3864 16.5455 10.692C17.2834 10.9977 17.9141 11.5153 18.3579 12.1794C18.8016 12.8435 19.0385 13.6243 19.0385 14.4231C19.0385 15.4941 18.613 16.5213 17.8556 17.2787C17.0983 18.0361 16.0711 18.4615 15 18.4615Z" fill="white"/>
</svg>
