<svg width="7" height="7" viewBox="0 0 7 7" fill="none" xmlns="http://www.w3.org/2000/svg">
<path d="M6.42659 5.98105C6.51465 6.06911 6.56413 6.18855 6.56413 6.31308C6.56413 6.43762 6.51465 6.55705 6.42659 6.64511C6.33853 6.73317 6.2191 6.78264 6.09456 6.78264C5.97003 6.78264 5.85059 6.73317 5.76253 6.64511L3.28245 4.16425L0.801594 6.64433C0.713534 6.73239 0.594099 6.78186 0.469563 6.78186C0.345027 6.78186 0.225592 6.73239 0.137532 6.64433C0.0494717 6.55627 1.3122e-09 6.43684 0 6.3123C-1.3122e-09 6.18776 0.0494717 6.06833 0.137532 5.98027L2.61839 3.50019L0.138313 1.01933C0.0502529 0.931271 0.000781267 0.811836 0.000781268 0.6873C0.000781269 0.562764 0.0502529 0.443329 0.138313 0.355269C0.226373 0.267208 0.345808 0.217737 0.470344 0.217737C0.59488 0.217737 0.714316 0.267208 0.802376 0.355269L3.28245 2.83613L5.76331 0.354878C5.85137 0.266818 5.97081 0.217346 6.09534 0.217346C6.21988 0.217346 6.33931 0.266818 6.42737 0.354878C6.51544 0.442938 6.56491 0.562373 6.56491 0.686909C6.56491 0.811445 6.51544 0.93088 6.42737 1.01894L3.94652 3.50019L6.42659 5.98105Z" fill="white"/>
</svg>
