<svg width="17" height="13" viewBox="0 0 17 13" fill="none" xmlns="http://www.w3.org/2000/svg">
<path d="M13.1649 4.78387L14.3916 3.81454C15.9574 4.52837 16.9999 5.51483 16.9999 6.60796C16.9999 8.79029 12.8683 10.5545 8.66658 10.5591C7.81156 10.559 6.95888 10.4884 6.12242 10.3483L7.57825 9.19857C7.93325 9.22754 8.29658 9.24269 8.66408 9.24203H8.66575C8.31992 9.24203 7.98659 9.20054 7.67325 9.1235L9.32408 7.81832C9.71575 7.6853 10.0299 7.43704 10.1991 7.12753L11.8491 5.82301C12.0044 6.21623 12.0409 6.63275 11.9556 7.03913C11.8703 7.4455 11.6655 7.8304 11.3578 8.1629C11.0501 8.4954 10.648 8.76624 10.1838 8.95366C9.71956 9.14107 9.2062 9.23984 8.68492 9.24203C12.2224 9.23215 15.3333 7.80383 15.3333 6.60796C15.3333 5.98698 14.4816 5.30015 13.1649 4.78387ZM5.41325 7.18417C5.30404 6.7992 5.30565 6.39977 5.41797 6.01537C5.53029 5.63096 5.75044 5.2714 6.06218 4.96325C6.37391 4.65509 6.76926 4.4062 7.21903 4.23496C7.6688 4.06372 8.1615 3.9745 8.66075 3.9739C5.14575 3.96402 1.99992 5.40815 1.99992 6.60796C1.99992 7.19799 2.75325 7.844 3.93909 8.34908L2.72409 9.30788C1.27825 8.60195 0.333252 7.65171 0.333252 6.60796C0.333252 4.42564 4.48659 2.64567 8.66658 2.65687C9.42825 2.65884 10.1891 2.71877 10.9241 2.8294L9.44325 3.99892C9.20158 3.98444 8.95658 3.97588 8.70992 3.9739C8.94492 3.97653 9.17409 3.99826 9.39575 4.03712L5.41325 7.18417ZM16.2433 0.488374C16.3995 0.611864 16.4872 0.77933 16.4872 0.953945C16.4872 1.12856 16.3995 1.29603 16.2433 1.41952L2.10159 12.5945C2.02477 12.6575 1.93286 12.7077 1.83122 12.7423C1.72958 12.7768 1.62025 12.795 1.5096 12.7959C1.39895 12.7967 1.28921 12.7801 1.18677 12.747C1.08432 12.714 0.991237 12.6651 0.912939 12.6034C0.83464 12.5416 0.772697 12.4681 0.730724 12.3872C0.688751 12.3063 0.667588 12.2196 0.668471 12.1321C0.669353 12.0447 0.692263 11.9583 0.735864 11.8779C0.779465 11.7975 0.842883 11.7248 0.922419 11.6641L15.0641 0.489032C15.1415 0.427806 15.2334 0.379234 15.3346 0.346095C15.4357 0.312956 15.5442 0.295898 15.6537 0.295898C15.7632 0.295898 15.8716 0.312956 15.9728 0.346095C16.074 0.379234 16.1659 0.427147 16.2433 0.488374Z" fill="#ABABAB"/>
</svg>
