<svg width="317" height="40" viewBox="0 0 317 40" fill="none" xmlns="http://www.w3.org/2000/svg">
<rect x="0.5" y="0.545898" width="316" height="38" rx="4.5" stroke="#ABABAB"/>
<path d="M18.83 14.9309C18.83 14.2859 19.415 14.0159 19.835 14.0159C20.255 14.0159 20.84 14.2859 20.84 14.9309V28.0259C20.84 28.6709 20.255 28.9409 19.835 28.9409C19.415 28.9409 18.83 28.6709 18.83 28.0259V14.9309ZM9.26 15.8009C9.26 15.2159 9.755 14.8709 10.25 14.8709C10.745 14.8709 11.24 15.2159 11.24 15.8009V18.1109H14.72V15.8009C14.72 15.2159 15.2 14.8709 15.71 14.8709C16.205 14.8709 16.7 15.2159 16.7 15.8009V23.1809C16.7 23.8859 16.52 24.2009 15.98 24.4559C15.41 24.7259 14.405 24.9059 12.98 24.9059C11.69 24.9059 10.55 24.7259 10.01 24.4709C9.44 24.2009 9.26 23.8859 9.26 23.1809V15.8009ZM11.24 22.8659C11.24 22.9409 11.285 23.0009 11.36 23.0159C11.72 23.1209 12.365 23.1659 12.98 23.1659C13.745 23.1659 14.24 23.1209 14.6 23.0159C14.675 23.0009 14.72 22.9409 14.72 22.8659V19.8509H11.24V22.8659ZM33.2294 14.9309C33.2294 14.2859 33.8144 14.0159 34.2344 14.0159C34.6544 14.0159 35.2394 14.2859 35.2394 14.9309V20.5259C35.2394 21.1709 34.6544 21.4409 34.2344 21.4409C33.8144 21.4409 33.2294 21.1709 33.2294 20.5259V14.9309ZM23.6594 15.5909C23.6594 15.0059 24.1394 14.6459 24.7844 14.6459H30.0344C30.6794 14.6459 31.1594 15.0059 31.1594 15.5909V19.2959C31.1594 20.0009 30.9794 20.3159 30.4394 20.5709C29.8694 20.8409 28.7294 21.0209 27.4094 21.0209C26.0894 21.0209 24.9494 20.8409 24.4094 20.5859C23.8394 20.3159 23.6594 20.0009 23.6594 19.2959V15.5909ZM25.3544 22.9409C25.3544 22.5209 25.6394 22.1009 26.2094 22.1009H34.1144C34.7594 22.1009 35.2394 22.4609 35.2394 23.0459V25.3109C35.2394 25.8809 34.7894 26.2109 34.2044 26.2109H27.5294V27.2009H34.7594C35.3294 27.2009 35.6144 27.6209 35.6144 28.0409C35.6144 28.4609 35.3294 28.8809 34.7594 28.8809H26.6444C25.9994 28.8809 25.5194 28.5209 25.5194 27.9359V25.6559C25.5194 25.0709 25.9994 24.7109 26.6444 24.7109H33.2294V23.7809H26.2094C25.6394 23.7809 25.3544 23.3609 25.3544 22.9409ZM25.6394 19.0109C25.6394 19.0859 25.6844 19.1459 25.7594 19.1609C26.1194 19.2659 26.7644 19.3109 27.4094 19.3109C28.0544 19.3109 28.6994 19.2659 29.0594 19.1609C29.1344 19.1459 29.1794 19.0859 29.1794 19.0109V16.3559H25.6394V19.0109ZM47.6288 14.9309C47.6288 14.2859 48.2138 14.0159 48.6338 14.0159C49.0538 14.0159 49.6388 14.2859 49.6388 14.9309V23.5259C49.6388 24.1709 49.0538 24.4409 48.6338 24.4409C48.2138 24.4409 47.6288 24.1709 47.6288 23.5259V19.0109H45.4088V20.2109C45.4088 20.9159 45.2288 21.2309 44.6888 21.4859C44.1188 21.7559 43.0838 21.9359 41.7638 21.9359C40.4438 21.9359 39.3488 21.7559 38.8088 21.5009C38.2388 21.2309 38.0588 20.9159 38.0588 20.2109V15.5309C38.0588 14.9459 38.5538 14.6009 39.0488 14.6009C39.5438 14.6009 40.0388 14.9459 40.0388 15.5309V16.6559H43.4288V15.5309C43.4288 14.9459 43.9088 14.6009 44.4188 14.6009C44.9138 14.6009 45.4088 14.9459 45.4088 15.5309V17.2709H47.6288V14.9309ZM39.9338 24.0359C39.9338 23.3909 40.5188 23.1209 40.9388 23.1209C41.3588 23.1209 41.9438 23.3909 41.9438 24.0359V26.6759C41.9438 26.8109 42.0338 26.9009 42.1688 26.9009H49.1138C49.6538 26.9009 49.9538 27.2609 49.9538 27.7709C49.9538 28.2809 49.6538 28.6409 49.1138 28.6409H41.2238C40.4888 28.6409 39.9338 28.1159 39.9338 27.4259V24.0359ZM40.0388 19.9259C40.0388 20.0009 40.0838 20.0609 40.1588 20.0759C40.5188 20.1809 41.1188 20.2259 41.7638 20.2259C42.4088 20.2259 42.9488 20.1809 43.3088 20.0759C43.3838 20.0609 43.4288 20.0009 43.4288 19.9259V18.3659H40.0388V19.9259ZM62.7782 21.0809C62.7782 22.6109 61.4582 23.7359 59.4032 24.0059V25.6559C61.0382 25.5959 62.5532 25.3859 63.9932 25.0109C64.0832 24.9809 64.1882 24.9809 64.2632 24.9809C64.7882 24.9809 65.1182 25.4009 65.1182 25.8359C65.1182 26.1959 64.9082 26.5559 64.3982 26.6909C62.6132 27.1859 60.5732 27.4109 58.3982 27.4109C56.2232 27.4109 54.1832 27.1859 52.3982 26.6909C51.8882 26.5559 51.6782 26.1959 51.6782 25.8359C51.6782 25.4009 52.0082 24.9659 52.5332 24.9659C52.6082 24.9659 52.7132 24.9809 52.8032 25.0109C54.2282 25.3859 55.7732 25.5959 57.3932 25.6559V24.0059C55.3382 23.7359 54.0182 22.6109 54.0182 21.0809C54.0182 19.3109 55.7732 18.0959 58.3982 18.0959C61.0082 18.0959 62.7782 19.3109 62.7782 21.0809ZM52.6982 16.4609C52.6982 15.9659 53.0582 15.5909 53.5832 15.5909C53.6432 15.5909 53.7182 15.5909 53.7782 15.6059C54.7982 15.8009 56.1332 15.8909 57.3932 15.9209V15.1259C57.3932 14.5259 57.9182 14.2109 58.3982 14.2109C58.8632 14.2109 59.4032 14.5409 59.4032 15.1259V15.9209C60.6632 15.8909 61.9982 15.8009 63.0182 15.6059C63.0782 15.5909 63.1532 15.5909 63.2132 15.5909C63.7382 15.5909 64.0982 15.9659 64.0982 16.4609C64.0982 16.8959 63.7532 17.1959 63.3032 17.3009C62.0432 17.5559 60.0632 17.6459 58.3982 17.6459C56.7332 17.6459 54.7532 17.5559 53.4932 17.3009C53.0432 17.1959 52.6982 16.8959 52.6982 16.4609ZM56.0282 21.0809C56.0282 21.8909 56.9432 22.3859 58.3982 22.3859C59.8532 22.3859 60.7682 21.8909 60.7682 21.0809C60.7682 20.2409 59.8532 19.7459 58.3982 19.7459C56.9432 19.7459 56.0282 20.2409 56.0282 21.0809Z" fill="#ABABAB"/>
<path d="M299.833 17.0459C300.496 17.0459 301.132 17.3093 301.601 17.7781C302.07 18.247 302.333 18.8829 302.333 19.5459C302.333 20.2089 302.07 20.8448 301.601 21.3137C301.132 21.7825 300.496 22.0459 299.833 22.0459C299.17 22.0459 298.534 21.7825 298.066 21.3137C297.597 20.8448 297.333 20.2089 297.333 19.5459C297.333 18.8829 297.597 18.247 298.066 17.7781C298.534 17.3093 299.17 17.0459 299.833 17.0459ZM299.833 13.2959C304 13.2959 307.558 15.8876 309 19.5459C307.558 23.2042 304 25.7959 299.833 25.7959C295.667 25.7959 292.108 23.2042 290.667 19.5459C292.108 15.8876 295.667 13.2959 299.833 13.2959ZM292.483 19.5459C293.157 20.9212 294.203 22.0799 295.502 22.8903C296.801 23.7007 298.302 24.1303 299.833 24.1303C301.365 24.1303 302.865 23.7007 304.165 22.8903C305.464 22.0799 306.51 20.9212 307.183 19.5459C306.51 18.1706 305.464 17.0119 304.165 16.2015C302.865 15.3911 301.365 14.9615 299.833 14.9615C298.302 14.9615 296.801 15.3911 295.502 16.2015C294.203 17.0119 293.157 18.1706 292.483 19.5459Z" fill="#ABABAB"/>
</svg>
