<svg width="19" height="13" viewBox="0 0 19 13" fill="none" xmlns="http://www.w3.org/2000/svg">
<path d="M9.16667 3.75C9.82971 3.75 10.4656 4.01339 10.9344 4.48223C11.4033 4.95107 11.6667 5.58696 11.6667 6.25C11.6667 6.91304 11.4033 7.54893 10.9344 8.01777C10.4656 8.48661 9.82971 8.75 9.16667 8.75C8.50362 8.75 7.86774 8.48661 7.3989 8.01777C6.93006 7.54893 6.66667 6.91304 6.66667 6.25C6.66667 5.58696 6.93006 4.95107 7.3989 4.48223C7.86774 4.01339 8.50362 3.75 9.16667 3.75ZM9.16667 0C13.3333 0 16.8917 2.59167 18.3333 6.25C16.8917 9.90833 13.3333 12.5 9.16667 12.5C5 12.5 1.44167 9.90833 0 6.25C1.44167 2.59167 5 0 9.16667 0ZM1.81667 6.25C2.49021 7.62526 3.53609 8.78396 4.8354 9.59438C6.13471 10.4048 7.63533 10.8344 9.16667 10.8344C10.698 10.8344 12.1986 10.4048 13.4979 9.59438C14.7972 8.78396 15.8431 7.62526 16.5167 6.25C15.8431 4.87474 14.7972 3.71604 13.4979 2.90562C12.1986 2.0952 10.698 1.66557 9.16667 1.66557C7.63533 1.66557 6.13471 2.0952 4.8354 2.90562C3.53609 3.71604 2.49021 4.87474 1.81667 6.25Z" fill="#ABABAB"/>
</svg>
