<svg width="1600" height="180" viewBox="0 0 1600 180" fill="none" xmlns="http://www.w3.org/2000/svg">
<g clip-path="url(#clip0_783_3985)">
<rect width="1600" height="180" rx="20" fill="white"/>
<path d="M475 63.95C475 64.1 475.06 64.22 475.24 64.28C476.02 64.49 476.86 64.61 477.85 64.61C478.9 64.61 480.1 64.49 481.24 64.19C481.39 64.16 481.66 64.13 481.78 64.13C482.71 64.13 483.61 64.82 483.61 65.84C483.61 66.65 483.04 67.25 482.17 67.49C480.58 67.91 479.26 68.03 477.85 68.03C476.29 68.03 474.94 67.85 473.14 67.34C471.49 66.89 470.98 65.84 470.98 64.46V50.75C470.98 49.46 472.15 48.92 472.99 48.92C473.83 48.92 475 49.46 475 50.75V63.95ZM485.11 49.1C485.11 47.81 486.28 47.27 487.09 47.27C487.96 47.27 489.07 47.81 489.07 49.1V56.48H491.62V48.77C491.62 47.48 492.79 46.94 493.6 46.94C494.47 46.94 495.58 47.48 495.58 48.77V74.9C495.58 76.19 494.47 76.73 493.6 76.73C492.79 76.73 491.62 76.19 491.62 74.9V59.96H489.07V74.36C489.07 75.65 487.96 76.19 487.09 76.19C486.28 76.19 485.11 75.65 485.11 74.36V49.1ZM522.108 58.79C522.108 65.57 518.748 69.02 514.278 69.02C509.808 69.02 506.448 65.57 506.448 58.79C506.448 52.01 509.808 48.62 514.278 48.62C518.748 48.62 522.108 52.01 522.108 58.79ZM510.468 58.79C510.468 63.41 512.088 65.6 514.278 65.6C516.468 65.6 518.088 63.41 518.088 58.79C518.088 54.23 516.438 52.01 514.278 52.01C512.118 52.01 510.468 54.23 510.468 58.79ZM525.198 48.77C525.198 47.48 526.368 46.94 527.208 46.94C528.048 46.94 529.218 47.48 529.218 48.77V56.48H531.708C532.788 56.48 533.388 57.2 533.388 58.22C533.388 59.24 532.788 59.96 531.708 59.96H529.218V74.96C529.218 76.25 528.048 76.79 527.208 76.79C526.368 76.79 525.198 76.25 525.198 74.96V48.77ZM555.377 48.77C555.377 47.48 556.547 46.94 557.387 46.94C558.227 46.94 559.397 47.48 559.397 48.77V74.96C559.397 76.25 558.227 76.79 557.387 76.79C556.547 76.79 555.377 76.25 555.377 74.96V48.77ZM535.667 58.79C535.667 52.31 538.997 48.62 543.767 48.62C548.537 48.62 551.867 52.31 551.867 58.79C551.867 65.27 548.537 69.02 543.767 69.02C538.997 69.02 535.667 65.27 535.667 58.79ZM539.687 58.79C539.687 63.41 541.637 65.6 543.767 65.6C545.897 65.6 547.847 63.41 547.847 58.79C547.847 54.23 545.897 52.01 543.767 52.01C541.637 52.01 539.687 54.23 539.687 58.79ZM588.736 59.24C589.816 59.24 590.356 60.08 590.356 60.95C590.356 61.79 589.816 62.66 588.736 62.66H565.096C564.016 62.66 563.476 61.79 563.476 60.95C563.476 60.08 564.016 59.24 565.096 59.24H574.906V57.56C572.716 57.44 570.496 57.2 569.236 56.84C567.706 56.39 567.166 55.55 567.166 54.02V49.73C567.166 48.56 568.126 47.84 569.416 47.84H584.716C585.796 47.84 586.396 48.53 586.396 49.55C586.396 50.54 585.826 51.2 584.716 51.2H571.126V53.57C571.126 53.72 571.216 53.87 571.366 53.9C572.776 54.14 574.726 54.23 576.916 54.23C579.316 54.23 582.586 53.93 584.686 53.57C584.866 53.54 585.106 53.48 585.256 53.48C586.276 53.48 587.086 54.2 587.086 55.13C587.086 55.94 586.486 56.63 585.646 56.81C583.876 57.17 581.296 57.44 578.926 57.53V59.24H588.736ZM566.716 65.96C566.716 65.12 567.286 64.31 568.426 64.31H584.236C585.526 64.31 586.486 65.03 586.486 66.2V70.07C586.486 71.21 585.586 71.87 584.416 71.87H571.066V73.37H585.766C586.906 73.37 587.476 74.18 587.476 75.02C587.476 75.83 586.906 76.67 585.766 76.67H569.296C568.006 76.67 567.046 75.95 567.046 74.78V70.88C567.046 69.71 568.006 68.99 569.296 68.99H582.466V67.61H568.426C567.286 67.61 566.716 66.77 566.716 65.96ZM605.484 70.25C605.484 66.17 609.564 63.65 614.874 63.65C620.184 63.65 624.264 66.17 624.264 70.25C624.264 74.33 620.184 76.85 614.874 76.85C609.564 76.85 605.484 74.33 605.484 70.25ZM599.784 60.59C599.784 59.93 600.174 59.36 600.744 58.91C602.334 57.59 603.354 56.33 604.074 54.44C604.584 53.09 604.674 51.8 604.674 50.69V49.88C604.674 48.62 605.754 48.05 606.624 48.05C607.494 48.05 608.574 48.62 608.574 49.88V50.69C608.574 51.8 608.664 53.09 609.174 54.44C609.894 56.33 610.914 57.59 612.504 58.91C613.074 59.36 613.464 59.93 613.464 60.59C613.464 61.4 612.714 62.24 611.634 62.24C611.154 62.24 610.704 62.09 610.164 61.7C608.994 60.86 607.314 58.91 606.624 57.14C605.934 58.91 604.254 60.86 603.084 61.7C602.544 62.09 602.094 62.24 601.614 62.24C600.534 62.24 599.784 61.4 599.784 60.59ZM609.504 70.25C609.504 72.2 611.604 73.43 614.874 73.43C618.144 73.43 620.244 72.2 620.244 70.25C620.244 68.3 618.144 67.07 614.874 67.07C611.604 67.07 609.504 68.3 609.504 70.25ZM614.544 49.1C614.544 47.81 615.714 47.27 616.524 47.27C617.394 47.27 618.504 47.81 618.504 49.1V52.91H621.054V48.77C621.054 47.48 622.224 46.94 623.034 46.94C623.904 46.94 625.014 47.48 625.014 48.77V62.18C625.014 63.47 623.904 64.01 623.034 64.01C622.224 64.01 621.054 63.47 621.054 62.18V56.39H618.504V60.74C618.504 62.03 617.394 62.57 616.524 62.57C615.714 62.57 614.544 62.03 614.544 60.74V49.1ZM648.892 48.77C648.892 47.48 650.062 46.94 650.902 46.94C651.742 46.94 652.912 47.48 652.912 48.77V59.96C652.912 61.25 651.742 61.79 650.902 61.79C650.062 61.79 648.892 61.25 648.892 59.96V48.77ZM629.182 54.65C629.182 50.57 632.782 47.69 637.342 47.69C641.872 47.69 645.502 50.57 645.502 54.65C645.502 58.73 641.842 61.49 637.342 61.49C632.782 61.49 629.182 58.73 629.182 54.65ZM633.142 64.79C633.142 63.95 633.712 63.11 634.852 63.11H650.662C651.952 63.11 652.912 63.83 652.912 65V69.53C652.912 70.67 652.012 71.33 650.842 71.33H637.492V73.31H651.952C653.092 73.31 653.662 74.15 653.662 74.99C653.662 75.83 653.092 76.67 651.952 76.67H635.722C634.432 76.67 633.472 75.95 633.472 74.78V70.22C633.472 69.05 634.432 68.33 635.722 68.33H648.892V66.47H634.852C633.712 66.47 633.142 65.63 633.142 64.79ZM633.142 54.65C633.142 56.78 635.002 58.1 637.342 58.1C639.682 58.1 641.542 56.78 641.542 54.65C641.542 52.52 639.682 51.08 637.342 51.08C635.002 51.08 633.142 52.52 633.142 54.65ZM676.311 48.77C676.311 47.48 677.481 46.94 678.321 46.94C679.161 46.94 680.331 47.48 680.331 48.77V56.48H682.821C683.901 56.48 684.501 57.2 684.501 58.22C684.501 59.24 683.901 59.96 682.821 59.96H680.331V74.96C680.331 76.25 679.161 76.79 678.321 76.79C677.481 76.79 676.311 76.25 676.311 74.96V48.77ZM657.801 58.07C657.801 57.05 658.281 56.36 659.301 56.33L667.761 56.15C667.911 55.73 668.031 55.31 668.121 54.86C668.271 54.17 668.421 53.45 668.481 52.76H659.511C658.461 52.76 657.861 52.04 657.861 51.02C657.861 50 658.461 49.28 659.511 49.28H670.641C671.661 49.28 672.591 49.94 672.591 51.05C672.591 52.67 672.291 54.2 671.931 55.82C670.641 61.61 666.981 66.08 661.041 69.23C660.711 69.41 660.261 69.53 659.991 69.53C658.911 69.53 658.011 68.63 658.011 67.61C658.011 66.92 658.401 66.41 658.911 66.14C662.151 64.4 664.641 62.15 666.291 59.45L659.631 59.87C658.491 59.93 657.801 59.18 657.801 58.07ZM707.51 48.77C707.51 47.48 708.65 46.94 709.46 46.94C710.33 46.94 711.41 47.48 711.41 48.77V74.9C711.41 76.19 710.33 76.73 709.46 76.73C708.65 76.73 707.51 76.19 707.51 74.9V48.77ZM685.58 66.5C685.58 65.33 686.54 64.76 687.71 64.88C687.77 64.88 687.86 64.88 687.92 64.91V52.55H687.47C686.39 52.55 685.64 51.89 685.64 50.87C685.64 49.85 686.39 49.16 687.47 49.16H697.88C698.96 49.16 699.71 49.85 699.71 50.87C699.71 51.89 698.96 52.55 697.88 52.55H697.46V64.73L697.7 64.67C698.24 64.55 698.66 64.49 698.93 64.49C699.83 64.49 700.4 65.12 700.4 66.02C700.4 66.86 699.98 67.46 699.05 67.73C697.58 68.15 695.54 68.45 692.57 68.45C689.84 68.45 688.43 68.39 687.02 68.15C686.06 67.97 685.58 67.37 685.58 66.5ZM693.26 65.06H693.92V52.55H691.46V65.06H693.26ZM698.54 58.16C698.54 57.14 699.14 56.48 700.22 56.48H701.66V49.1C701.66 47.81 702.8 47.27 703.61 47.27C704.48 47.27 705.56 47.81 705.56 49.1V74.36C705.56 75.65 704.48 76.19 703.61 76.19C702.8 76.19 701.66 75.65 701.66 74.36V59.9H700.22C699.11 59.9 698.54 59.12 698.54 58.16ZM734.278 58.79C734.278 54.23 732.508 52.01 730.498 52.01C728.488 52.01 726.718 54.23 726.718 58.79C726.718 63.41 728.488 65.6 730.498 65.6C732.508 65.6 734.278 63.41 734.278 58.79ZM722.698 58.79C722.698 52.31 726.118 48.62 730.498 48.62C734.458 48.62 737.638 51.62 738.208 56.99H742.408V48.77C742.408 47.48 743.578 46.94 744.418 46.94C745.258 46.94 746.428 47.48 746.428 48.77V74.96C746.428 76.25 745.258 76.79 744.418 76.79C743.578 76.79 742.408 76.25 742.408 74.96V60.47H738.208C737.668 65.9 734.488 69.02 730.498 69.02C726.118 69.02 722.698 65.27 722.698 58.79ZM754.347 68C752.727 67.52 752.217 66.5 752.217 65.12V50.87C752.217 49.7 753.177 48.98 754.467 48.98H765.417C766.527 48.98 767.097 49.7 767.097 50.69C767.097 51.71 766.497 52.43 765.417 52.43H756.237V64.64C756.237 64.79 756.327 64.91 756.477 64.94C757.317 65.18 758.847 65.27 759.897 65.27C761.127 65.27 763.797 65.03 765.897 64.49C766.047 64.43 766.347 64.4 766.497 64.4C767.427 64.4 768.297 65.06 768.297 66.08C768.297 66.89 767.697 67.55 766.857 67.79C764.577 68.45 761.457 68.69 759.897 68.69C758.367 68.69 756.147 68.57 754.347 68ZM771.207 48.77C771.207 47.48 772.377 46.94 773.217 46.94C774.057 46.94 775.227 47.48 775.227 48.77V74.96C775.227 76.25 774.057 76.79 773.217 76.79C772.377 76.79 771.207 76.25 771.207 74.96V48.77ZM783.296 68.51C782.876 68.84 782.336 69.05 781.856 69.05C780.836 69.05 779.876 68.3 779.876 67.22C779.876 66.62 780.176 66.14 780.656 65.75C783.146 63.74 784.976 60.86 785.816 58.1C786.296 56.54 786.446 54.95 786.446 52.73V50.45C786.446 49.16 787.616 48.62 788.426 48.62C789.296 48.62 790.406 49.16 790.406 50.45V52.73C790.406 54.89 790.586 56.57 790.976 58.04C791.816 61.16 793.796 63.68 796.196 65.42C796.736 65.84 797.036 66.32 797.036 66.89C797.036 67.91 796.016 68.75 794.996 68.75C794.636 68.75 794.096 68.57 793.706 68.3C791.366 66.65 789.566 64.37 788.396 61.85C787.166 64.4 785.426 66.8 783.296 68.51ZM794.246 57.53C794.246 56.51 794.936 55.79 796.016 55.79H800.006V48.77C800.006 47.48 801.176 46.94 802.016 46.94C802.856 46.94 804.026 47.48 804.026 48.77V74.96C804.026 76.25 802.856 76.79 802.016 76.79C801.176 76.79 800.006 76.25 800.006 74.96V59.27H796.016C794.936 59.27 794.246 58.55 794.246 57.53ZM824.284 69.83C819.904 69.83 817.114 66.83 817.114 62.9C817.114 58.94 819.904 55.91 824.284 55.91C828.664 55.91 831.454 58.94 831.454 62.9C831.454 66.83 828.664 69.83 824.284 69.83ZM815.284 52.1C815.284 50.87 816.274 50.24 817.324 50.42C818.794 50.69 820.624 50.87 822.274 50.93V48.77C822.274 47.48 823.324 46.94 824.284 46.94C825.124 46.94 826.294 47.48 826.294 48.77V50.93C827.884 50.84 829.624 50.69 831.004 50.42C832.054 50.24 833.044 50.87 833.044 52.1C833.044 52.97 832.474 53.6 831.574 53.78C829.624 54.2 826.624 54.41 824.134 54.41C821.644 54.41 818.704 54.2 816.754 53.78C815.854 53.6 815.284 52.97 815.284 52.1ZM821.014 62.9C821.014 65.06 822.154 66.47 824.284 66.47C826.414 66.47 827.554 65.06 827.554 62.9C827.554 60.65 826.384 59.21 824.284 59.21C822.184 59.21 821.014 60.65 821.014 62.9ZM834.544 48.77C834.544 47.48 835.714 46.94 836.554 46.94C837.394 46.94 838.564 47.48 838.564 48.77V57.38H841.054C842.134 57.38 842.734 58.1 842.734 59.12C842.734 60.14 842.134 60.86 841.054 60.86H838.564V74.96C838.564 76.25 837.394 76.79 836.554 76.79C835.714 76.79 834.544 76.25 834.544 74.96V48.77ZM847.863 68C846.243 67.52 845.733 66.5 845.733 65.12V50.87C845.733 49.7 846.693 48.98 847.983 48.98H858.633C859.743 48.98 860.313 49.7 860.313 50.69C860.313 51.71 859.713 52.43 858.633 52.43H849.753V64.64C849.753 64.79 849.843 64.91 849.993 64.94C850.833 65.18 852.363 65.27 853.413 65.27C854.643 65.27 857.013 65.03 859.113 64.49C859.263 64.43 859.563 64.4 859.713 64.4C860.643 64.4 861.513 65.06 861.513 66.08C861.513 66.89 860.913 67.55 860.073 67.79C857.793 68.45 854.973 68.69 853.413 68.69C851.882 68.69 849.663 68.57 847.863 68ZM856.893 58.13C856.893 57.11 857.493 56.39 858.573 56.39H864.723V48.77C864.723 47.48 865.893 46.94 866.733 46.94C867.573 46.94 868.743 47.48 868.743 48.77V74.96C868.743 76.25 867.573 76.79 866.733 76.79C865.893 76.79 864.723 76.25 864.723 74.96V59.87H858.573C857.493 59.87 856.893 59.15 856.893 58.13ZM892.141 48.77C892.141 47.48 893.311 46.94 894.151 46.94C894.991 46.94 896.161 47.48 896.161 48.77V56.48H898.651C899.731 56.48 900.331 57.2 900.331 58.22C900.331 59.24 899.731 59.96 898.651 59.96H896.161V74.96C896.161 76.25 894.991 76.79 894.151 76.79C893.311 76.79 892.141 76.25 892.141 74.96V48.77ZM873.721 50.57C873.721 49.73 874.081 48.86 875.371 48.86H885.721C887.041 48.86 887.971 49.58 887.971 50.81V58.28C887.971 59.27 887.071 59.96 885.991 59.96H878.041V64.61C878.041 64.85 878.161 65.03 878.431 65.06C879.241 65.18 880.621 65.21 881.731 65.21C882.991 65.21 885.571 65 887.641 64.49C887.881 64.43 888.091 64.37 888.301 64.34C889.351 64.25 890.041 65.21 890.041 66.11C890.041 66.89 889.621 67.52 888.631 67.79C886.351 68.42 883.291 68.63 881.731 68.63C880.201 68.63 878.011 68.6 876.211 68.09C874.561 67.61 874.051 66.5 874.051 65.12V58.55C874.051 57.32 874.981 56.6 876.301 56.6H883.981V52.31H875.371C874.081 52.31 873.721 51.44 873.721 50.57ZM907.5 60.44C909.75 59.3 912 58.04 912 55.37C912 53.39 910.47 52.4 908.73 52.46C907.83 52.49 906.75 53.03 905.94 54.08C905.13 55.16 903.96 55.31 903.12 54.8C902.4 54.35 902.01 53.63 902.49 52.52C903.42 50.6 905.76 49.04 908.73 49.04C913.5 49.04 916.05 51.98 916.05 55.43C916.05 59.27 913.26 61.46 910.17 63.08V65.57C910.17 66.89 909.3 67.43 908.22 67.43C907.14 67.43 906.21 66.89 906.21 65.57V62.39C906.21 61.49 906.72 60.83 907.5 60.44ZM905.76 72.2C905.76 70.82 906.81 69.83 908.19 69.83C909.57 69.83 910.62 70.82 910.62 72.2C910.62 73.61 909.57 74.6 908.19 74.6C906.81 74.6 905.76 73.61 905.76 72.2Z" fill="#FFC6C6"/>
<path d="M480.75 127.75C480.75 120.95 487.55 116.75 496.4 116.75C505.25 116.75 512.05 120.95 512.05 127.75C512.05 134.55 505.25 138.75 496.4 138.75C487.55 138.75 480.75 134.55 480.75 127.75ZM471.25 111.65C471.25 110.55 471.9 109.6 472.85 108.85C475.5 106.65 477.2 104.55 478.4 101.4C479.25 99.15 479.4 97 479.4 95.15V93.8C479.4 91.7 481.2 90.75 482.65 90.75C484.1 90.75 485.9 91.7 485.9 93.8V95.15C485.9 97 486.05 99.15 486.9 101.4C488.1 104.55 489.8 106.65 492.45 108.85C493.4 109.6 494.05 110.55 494.05 111.65C494.05 113 492.8 114.4 491 114.4C490.2 114.4 489.45 114.15 488.55 113.5C486.6 112.1 483.8 108.85 482.65 105.9C481.5 108.85 478.7 112.1 476.75 113.5C475.85 114.15 475.1 114.4 474.3 114.4C472.5 114.4 471.25 113 471.25 111.65ZM487.45 127.75C487.45 131 490.95 133.05 496.4 133.05C501.85 133.05 505.35 131 505.35 127.75C505.35 124.5 501.85 122.45 496.4 122.45C490.95 122.45 487.45 124.5 487.45 127.75ZM495.85 92.5C495.85 90.35 497.8 89.45 499.15 89.45C500.6 89.45 502.45 90.35 502.45 92.5V98.85H506.7V91.95C506.7 89.8 508.65 88.9 510 88.9C511.45 88.9 513.3 89.8 513.3 91.95V114.3C513.3 116.45 511.45 117.35 510 117.35C508.65 117.35 506.7 116.45 506.7 114.3V104.65H502.45V111.9C502.45 114.05 500.6 114.95 499.15 114.95C497.8 114.95 495.85 114.05 495.85 111.9V92.5ZM553.098 91.95C553.098 89.8 555.048 88.9 556.448 88.9C557.848 88.9 559.798 89.8 559.798 91.95V110.6C559.798 112.75 557.848 113.65 556.448 113.65C555.048 113.65 553.098 112.75 553.098 110.6V91.95ZM520.248 101.75C520.248 94.95 526.248 90.15 533.848 90.15C541.398 90.15 547.448 94.95 547.448 101.75C547.448 108.55 541.348 113.15 533.848 113.15C526.248 113.15 520.248 108.55 520.248 101.75ZM526.848 118.65C526.848 117.25 527.798 115.85 529.698 115.85H556.048C558.198 115.85 559.798 117.05 559.798 119V126.55C559.798 128.45 558.298 129.55 556.348 129.55H534.098V132.85H558.198C560.098 132.85 561.048 134.25 561.048 135.65C561.048 137.05 560.098 138.45 558.198 138.45H531.148C528.998 138.45 527.398 137.25 527.398 135.3V127.7C527.398 125.75 528.998 124.55 531.148 124.55H553.098V121.45H529.698C527.798 121.45 526.848 120.05 526.848 118.65ZM526.848 101.75C526.848 105.3 529.948 107.5 533.848 107.5C537.748 107.5 540.848 105.3 540.848 101.75C540.848 98.2 537.748 95.8 533.848 95.8C529.948 95.8 526.848 98.2 526.848 101.75ZM598.796 91.95C598.796 89.8 600.746 88.9 602.146 88.9C603.546 88.9 605.496 89.8 605.496 91.95V104.8H609.646C611.446 104.8 612.446 106 612.446 107.7C612.446 109.4 611.446 110.6 609.646 110.6H605.496V135.6C605.496 137.75 603.546 138.65 602.146 138.65C600.746 138.65 598.796 137.75 598.796 135.6V91.95ZM567.946 107.45C567.946 105.75 568.746 104.6 570.446 104.55L584.546 104.25C584.796 103.55 584.996 102.85 585.146 102.1C585.396 100.95 585.646 99.75 585.746 98.6H570.796C569.046 98.6 568.046 97.4 568.046 95.7C568.046 94 569.046 92.8 570.796 92.8H589.346C591.046 92.8 592.596 93.9 592.596 95.75C592.596 98.45 592.096 101 591.496 103.7C589.346 113.35 583.246 120.8 573.346 126.05C572.796 126.35 572.046 126.55 571.596 126.55C569.796 126.55 568.296 125.05 568.296 123.35C568.296 122.2 568.946 121.35 569.796 120.9C575.196 118 579.346 114.25 582.096 109.75L570.996 110.45C569.096 110.55 567.946 109.3 567.946 107.45ZM650.794 91.95C650.794 89.8 652.694 88.9 654.044 88.9C655.494 88.9 657.294 89.8 657.294 91.95V135.5C657.294 137.65 655.494 138.55 654.044 138.55C652.694 138.55 650.794 137.65 650.794 135.5V91.95ZM614.244 121.5C614.244 119.55 615.844 118.6 617.794 118.8C617.894 118.8 618.044 118.8 618.144 118.85V98.25H617.394C615.594 98.25 614.344 97.15 614.344 95.45C614.344 93.75 615.594 92.6 617.394 92.6H634.744C636.544 92.6 637.794 93.75 637.794 95.45C637.794 97.15 636.544 98.25 634.744 98.25H634.044V118.55L634.444 118.45C635.344 118.25 636.044 118.15 636.494 118.15C637.994 118.15 638.944 119.2 638.944 120.7C638.944 122.1 638.244 123.1 636.694 123.55C634.244 124.25 630.844 124.75 625.894 124.75C621.344 124.75 618.994 124.65 616.644 124.25C615.044 123.95 614.244 122.95 614.244 121.5ZM627.044 119.1H628.144V98.25H624.044V119.1H627.044ZM635.844 107.6C635.844 105.9 636.844 104.8 638.644 104.8H641.044V92.5C641.044 90.35 642.944 89.45 644.294 89.45C645.744 89.45 647.544 90.35 647.544 92.5V134.6C647.544 136.75 645.744 137.65 644.294 137.65C642.944 137.65 641.044 136.75 641.044 134.6V110.5H638.644C636.794 110.5 635.844 109.2 635.844 107.6ZM710.657 91.95C710.657 89.8 712.557 88.9 713.907 88.9C715.357 88.9 717.157 89.8 717.157 91.95V121.1C717.157 123.25 715.357 124.15 713.907 124.15C712.557 124.15 710.657 123.25 710.657 121.1V105.9H706.707V119.5C706.707 121.65 704.907 122.55 703.457 122.55C702.107 122.55 700.207 121.65 700.207 119.5V92.5C700.207 90.35 702.107 89.45 703.457 89.45C704.907 89.45 706.707 90.35 706.707 92.5V100.1H710.657V91.95ZM674.107 111.75C674.107 109.8 675.707 108.75 677.657 109.05L678.157 109.1V97.35H677.257C675.457 97.35 674.207 96.35 674.207 94.65C674.207 92.95 675.457 91.9 677.257 91.9H694.607C696.407 91.9 697.657 92.95 697.657 94.65C697.657 96.35 696.407 97.35 694.607 97.35H694.207V108.55C695.057 108.35 695.757 108.2 696.357 108.2C697.807 108.2 698.807 109.25 698.807 110.75C698.807 112.15 698.107 113 696.557 113.55C694.107 114.4 690.707 114.9 685.757 114.9C681.207 114.9 678.857 114.8 676.507 114.4C674.907 114.1 674.107 113.2 674.107 111.75ZM683.807 122.3C683.807 120.15 685.757 119.25 687.157 119.25C688.557 119.25 690.507 120.15 690.507 122.3V131.1C690.507 131.55 690.807 131.85 691.257 131.85H715.007C716.807 131.85 717.807 133.05 717.807 134.75C717.807 136.45 716.807 137.65 715.007 137.65H688.107C685.657 137.65 683.807 135.9 683.807 133.6V122.3ZM686.907 109.45C687.407 109.45 687.857 109.45 688.307 109.4V97.35H684.057V109.45H686.907ZM764.555 109.3C766.355 109.3 767.255 110.7 767.255 112.15C767.255 113.55 766.355 115 764.555 115H725.155C723.355 115 722.455 113.55 722.455 112.15C722.455 110.7 723.355 109.3 725.155 109.3H764.555ZM726.455 103.05C726.455 101.3 727.555 100.4 729.205 100.4C729.405 100.4 729.955 100.45 730.505 100.5C731.555 100.6 732.655 100.65 733.755 100.75V95.9H730.155C728.355 95.9 727.105 94.85 727.105 93.15C727.105 91.5 728.305 90.4 730.155 90.4H759.555C761.405 90.4 762.605 91.5 762.605 93.15C762.605 94.85 761.355 95.9 759.555 95.9H755.955V100.75C757.055 100.65 758.155 100.6 759.205 100.5C759.405 100.5 760.305 100.35 760.505 100.35C762.155 100.35 763.255 101.3 763.255 103.05C763.255 104.4 762.205 105.5 760.105 105.8C756.405 106.3 751.105 106.65 744.855 106.65C738.605 106.65 733.305 106.3 729.605 105.8C727.505 105.5 726.455 104.4 726.455 103.05ZM727.855 120.6C727.855 119.2 728.805 117.85 730.705 117.85H757.055C759.205 117.85 760.805 119.05 760.805 121V127.45C760.805 129.35 759.305 130.45 757.355 130.45H735.105V132.95H759.605C761.505 132.95 762.455 134.3 762.455 135.7C762.455 137.05 761.505 138.45 759.605 138.45H732.155C730.005 138.45 728.405 137.25 728.405 135.3V128.8C728.405 126.85 730.005 125.65 732.155 125.65H754.105V123.35H730.705C728.805 123.35 727.855 121.95 727.855 120.6ZM740.455 101.1C741.855 101.15 743.305 101.15 744.855 101.15C746.405 101.15 747.855 101.15 749.255 101.1V95.9H740.455V101.1ZM776.504 105.85C776.504 103.9 778.104 102.7 780.254 102.7H802.354V97.5H778.904C776.754 97.5 776.154 96.05 776.154 94.65C776.154 93.2 776.754 91.8 778.904 91.8H805.304C807.454 91.8 809.054 93 809.054 94.95V105.55C809.054 107.15 807.554 108.3 805.754 108.3H783.204V112.9C783.204 113.25 783.354 113.4 783.604 113.45C785.754 114 789.554 114.3 793.154 114.3C797.154 114.3 802.654 113.65 807.054 112.6C807.404 112.5 807.754 112.45 808.054 112.45C809.904 112.45 811.004 113.9 811.004 115.35C811.004 116.55 810.254 117.7 808.604 118.1C804.904 119.1 800.254 119.7 796.204 119.9V127.1C801.654 126.9 806.704 126.2 811.504 124.95C811.804 124.85 812.154 124.85 812.404 124.85C814.154 124.85 815.254 126.25 815.254 127.7C815.254 128.9 814.554 130.1 812.854 130.55C806.904 132.2 800.104 132.95 792.854 132.95C785.604 132.95 778.804 132.2 772.854 130.55C771.154 130.1 770.454 128.9 770.454 127.7C770.454 126.25 771.554 124.8 773.304 124.8C773.554 124.8 773.904 124.85 774.204 124.95C778.954 126.2 784.104 126.9 789.504 127.1V119.9C786.104 119.75 782.704 119.3 780.054 118.4C777.404 117.5 776.504 115.9 776.504 113.6V105.85ZM840.852 113.8C831.652 113.8 824.302 109.6 824.302 102.05C824.302 94.5 831.652 90.3 840.852 90.3C850.052 90.3 857.402 94.5 857.402 102.05C857.402 109.6 850.052 113.8 840.852 113.8ZM818.452 118.35C818.452 116.9 819.552 115.45 821.302 115.45C821.552 115.45 821.902 115.5 822.202 115.6C827.952 117.1 834.202 117.8 840.852 117.8C847.552 117.8 853.752 117.1 859.502 115.6C859.802 115.5 860.152 115.5 860.402 115.5C862.152 115.5 863.252 116.9 863.252 118.35C863.252 119.55 862.552 120.75 860.852 121.2C855.852 122.6 850.202 123.35 844.202 123.55V135.6C844.202 137.6 842.552 138.6 840.852 138.6C839.202 138.6 837.502 137.6 837.502 135.6V123.55C831.502 123.35 825.852 122.6 820.852 121.2C819.152 120.75 818.452 119.55 818.452 118.35ZM830.902 102.05C830.902 106.1 835.252 108.1 840.852 108.1C846.452 108.1 850.802 106.1 850.802 102.05C850.802 98 846.452 96 840.852 96C835.252 96 830.902 98 830.902 102.05ZM902.55 91.95C902.55 89.8 904.5 88.9 905.85 88.9C907.3 88.9 909.15 89.8 909.15 91.95V135.5C909.15 137.65 907.3 138.55 905.85 138.55C904.5 138.55 902.55 137.65 902.55 135.5V91.95ZM867.05 108.65C867.05 97.95 871.35 92 878.05 92C883.95 92 887.95 96.55 888.85 104.8H892.2V92.5C892.2 90.35 894.15 89.45 895.5 89.45C896.95 89.45 898.8 90.35 898.8 92.5V134.6C898.8 136.75 896.95 137.65 895.5 137.65C894.15 137.65 892.2 136.75 892.2 134.6V110.6H889C888.5 120.15 884.4 125.3 878.05 125.3C871.35 125.3 867.05 119.45 867.05 108.65ZM873.6 108.65C873.6 116.35 875.75 119.6 878.1 119.6C880.4 119.6 882.5 116.35 882.5 108.65C882.5 101.05 880.4 97.65 878.1 97.65C875.8 97.65 873.6 101.05 873.6 108.65ZM939.013 98V110.05C939.013 110.3 939.163 110.4 939.413 110.45C940.613 110.8 944.563 111.35 948.713 111.35C952.863 111.35 956.813 110.8 958.013 110.45C958.263 110.4 958.413 110.2 958.413 109.95V98H939.013ZM926.313 127.7C926.313 126.25 927.413 124.8 929.163 124.8C929.413 124.8 929.763 124.85 930.063 124.95C934.813 126.2 939.963 126.9 945.363 127.1V116.95C940.413 116.75 936.413 116 934.913 115.3C933.013 114.4 932.413 113.35 932.413 111V95.45C932.413 93.5 934.013 92.3 936.163 92.3H961.263C963.413 92.3 965.013 93.5 965.013 95.45V111C965.013 113.35 964.413 114.4 962.613 115.25C961.063 116 957.013 116.75 952.063 116.95V127.1C957.513 126.9 962.563 126.2 967.363 124.95C967.663 124.85 968.013 124.85 968.263 124.85C970.013 124.85 971.113 126.25 971.113 127.7C971.113 128.9 970.413 130.1 968.713 130.55C962.763 132.2 955.963 132.95 948.713 132.95C941.463 132.95 934.663 132.2 928.713 130.55C927.013 130.1 926.313 128.9 926.313 127.7ZM1001.36 108.65C1001.36 119.95 995.761 125.7 988.311 125.7C980.861 125.7 975.261 119.95 975.261 108.65C975.261 97.35 980.861 91.7 988.311 91.7C995.761 91.7 1001.36 97.35 1001.36 108.65ZM981.961 108.65C981.961 116.35 984.661 120 988.311 120C991.961 120 994.661 116.35 994.661 108.65C994.661 101.05 991.911 97.35 988.311 97.35C984.711 97.35 981.961 101.05 981.961 108.65ZM1006.51 91.95C1006.51 89.8 1008.46 88.9 1009.86 88.9C1011.26 88.9 1013.21 89.8 1013.21 91.95V104.8H1017.36C1019.16 104.8 1020.16 106 1020.16 107.7C1020.16 109.4 1019.16 110.6 1017.36 110.6H1013.21V135.6C1013.21 137.75 1011.26 138.65 1009.86 138.65C1008.46 138.65 1006.51 137.75 1006.51 135.6V91.95ZM1054.51 91.95C1054.51 89.8 1056.46 88.9 1057.86 88.9C1059.26 88.9 1061.21 89.8 1061.21 91.95V100.55H1065.36C1067.16 100.55 1068.16 101.75 1068.16 103.45C1068.16 105.15 1067.16 106.35 1065.36 106.35H1061.21V116.35C1061.21 118.5 1059.26 119.4 1057.86 119.4C1056.46 119.4 1054.51 118.5 1054.51 116.35V91.95ZM1022.11 115.65C1022.11 113.95 1023.31 112.8 1025.11 112.8H1033.36V108.55C1031.21 108.45 1029.26 108.25 1027.91 108C1025.16 107.45 1024.31 105.4 1024.31 103.1V93.85C1024.31 91.7 1026.26 90.8 1027.66 90.8C1029.06 90.8 1030.91 91.7 1030.91 93.85V102.25C1030.91 102.6 1031.11 102.8 1031.36 102.85C1032.26 103.05 1035.01 103.15 1037.26 103.15C1039.96 103.15 1043.36 102.95 1046.06 102.45L1046.91 102.3C1048.51 102.05 1050.01 102.9 1050.06 104.8C1050.11 106.35 1049.26 107.4 1047.66 107.75C1045.61 108.2 1042.86 108.5 1040.06 108.6V112.75C1043.66 112.6 1046.41 112.3 1049.11 111.7C1051.51 111.2 1052.91 112.6 1052.91 114.3C1052.91 115.7 1052.06 116.8 1050.36 117.2C1046.51 118.1 1042.21 118.5 1035.76 118.5H1025.11C1023.31 118.5 1022.11 117.35 1022.11 115.65ZM1024.56 135.65C1024.56 134.65 1025.11 133.95 1025.96 133.3C1028.46 131.35 1031.16 128.3 1032.01 125.75C1032.26 125.05 1032.36 124.25 1032.36 123.8V123.3C1032.36 121.5 1034.06 120.45 1035.66 120.45C1037.31 120.45 1038.96 121.5 1038.96 123.3V123.8C1038.96 124.2 1039.06 124.8 1039.31 125.75C1040.06 128.45 1042.26 130.75 1044.36 132.45C1046.51 130.75 1048.76 128.25 1049.46 125.65C1049.66 124.85 1049.76 124.2 1049.76 123.8V123.3C1049.76 121.5 1051.46 120.45 1053.06 120.45C1054.71 120.45 1056.36 121.5 1056.36 123.3V123.8C1056.36 124.25 1056.46 125.05 1056.66 125.65C1057.56 128.45 1060.36 131.35 1062.66 133.15C1063.51 133.8 1064.01 134.6 1064.01 135.55C1064.01 137.3 1062.51 138.55 1060.81 138.55C1060.36 138.55 1059.46 138.35 1058.76 137.85C1056.76 136.4 1054.46 133.95 1052.86 131.3C1051.11 134.05 1049.16 136.3 1047.06 137.95C1046.31 138.6 1045.26 138.9 1044.41 138.9C1043.41 138.9 1042.46 138.5 1041.66 137.9C1039.76 136.55 1037.66 134.2 1035.86 131.3C1034.31 134 1032.06 136.45 1029.86 138C1029.11 138.55 1028.31 138.6 1027.76 138.6C1026.11 138.6 1024.56 137.45 1024.56 135.65ZM1076.01 124C1073.31 123.2 1072.46 121.5 1072.46 119.2V95.45C1072.46 93.5 1074.06 92.3 1076.21 92.3H1093.56C1095.41 92.3 1096.36 93.5 1096.36 95.15C1096.36 96.85 1095.36 98.05 1093.56 98.05H1079.16V118.4C1079.16 118.65 1079.31 118.85 1079.56 118.9C1080.96 119.3 1083.51 119.45 1085.26 119.45C1087.31 119.45 1090.86 119.05 1094.36 118.15C1094.61 118.05 1095.11 118 1095.36 118C1096.91 118 1098.36 119.1 1098.36 120.8C1098.36 122.15 1097.36 123.25 1095.96 123.65C1092.16 124.75 1087.86 125.15 1085.26 125.15C1082.71 125.15 1079.01 124.95 1076.01 124ZM1102.51 91.95C1102.51 89.8 1104.46 88.9 1105.86 88.9C1107.26 88.9 1109.21 89.8 1109.21 91.95V104.8H1113.36C1115.16 104.8 1116.16 106 1116.16 107.7C1116.16 109.4 1115.16 110.6 1113.36 110.6H1109.21V135.6C1109.21 137.75 1107.26 138.65 1105.86 138.65C1104.46 138.65 1102.51 137.75 1102.51 135.6V91.95ZM1123.91 123.1C1122.06 123.1 1120.61 122.15 1120.56 119.95L1120.26 96C1120.21 93.85 1122.06 92.75 1123.91 92.75C1125.76 92.75 1127.56 93.8 1127.51 96L1127.21 119.95C1127.16 122.15 1125.71 123.1 1123.91 123.1ZM1119.86 131C1119.86 128.7 1121.61 127.05 1123.91 127.05C1126.21 127.05 1127.96 128.7 1127.96 131C1127.96 133.35 1126.21 135 1123.91 135C1121.61 135 1119.86 133.35 1119.86 131Z" fill="#FFA495"/>
<path d="M707.8 89.95C707.8 87.8 709.7 86.9 711.05 86.9C712.5 86.9 714.3 87.8 714.3 89.95V119.1C714.3 121.25 712.5 122.15 711.05 122.15C709.7 122.15 707.8 121.25 707.8 119.1V103.9H703.85V117.5C703.85 119.65 702.05 120.55 700.6 120.55C699.25 120.55 697.35 119.65 697.35 117.5V90.5C697.35 88.35 699.25 87.45 700.6 87.45C702.05 87.45 703.85 88.35 703.85 90.5V98.1H707.8V89.95ZM671.25 109.75C671.25 107.8 672.85 106.75 674.8 107.05L675.3 107.1V95.35H674.4C672.6 95.35 671.35 94.35 671.35 92.65C671.35 90.95 672.6 89.9 674.4 89.9H691.75C693.55 89.9 694.8 90.95 694.8 92.65C694.8 94.35 693.55 95.35 691.75 95.35H691.35V106.55C692.2 106.35 692.9 106.2 693.5 106.2C694.95 106.2 695.95 107.25 695.95 108.75C695.95 110.15 695.25 111 693.7 111.55C691.25 112.4 687.85 112.9 682.9 112.9C678.35 112.9 676 112.8 673.65 112.4C672.05 112.1 671.25 111.2 671.25 109.75ZM680.95 120.3C680.95 118.15 682.9 117.25 684.3 117.25C685.7 117.25 687.65 118.15 687.65 120.3V129.1C687.65 129.55 687.95 129.85 688.4 129.85H712.15C713.95 129.85 714.95 131.05 714.95 132.75C714.95 134.45 713.95 135.65 712.15 135.65H685.25C682.8 135.65 680.95 133.9 680.95 131.6V120.3ZM684.05 107.45C684.55 107.45 685 107.45 685.45 107.4V95.35H681.2V107.45H684.05ZM761.698 107.3C763.498 107.3 764.398 108.7 764.398 110.15C764.398 111.55 763.498 113 761.698 113H722.298C720.498 113 719.598 111.55 719.598 110.15C719.598 108.7 720.498 107.3 722.298 107.3H761.698ZM723.598 101.05C723.598 99.3 724.698 98.4 726.348 98.4C726.548 98.4 727.098 98.45 727.648 98.5C728.698 98.6 729.798 98.65 730.898 98.75V93.9H727.298C725.498 93.9 724.248 92.85 724.248 91.15C724.248 89.5 725.448 88.4 727.298 88.4H756.698C758.548 88.4 759.748 89.5 759.748 91.15C759.748 92.85 758.498 93.9 756.698 93.9H753.098V98.75C754.198 98.65 755.298 98.6 756.348 98.5C756.548 98.5 757.448 98.35 757.648 98.35C759.298 98.35 760.398 99.3 760.398 101.05C760.398 102.4 759.348 103.5 757.248 103.8C753.548 104.3 748.248 104.65 741.998 104.65C735.748 104.65 730.448 104.3 726.748 103.8C724.648 103.5 723.598 102.4 723.598 101.05ZM724.998 118.6C724.998 117.2 725.948 115.85 727.848 115.85H754.198C756.348 115.85 757.948 117.05 757.948 119V125.45C757.948 127.35 756.448 128.45 754.498 128.45H732.248V130.95H756.748C758.648 130.95 759.598 132.3 759.598 133.7C759.598 135.05 758.648 136.45 756.748 136.45H729.298C727.148 136.45 725.548 135.25 725.548 133.3V126.8C725.548 124.85 727.148 123.65 729.298 123.65H751.248V121.35H727.848C725.948 121.35 724.998 119.95 724.998 118.6ZM737.598 99.1C738.998 99.15 740.448 99.15 741.998 99.15C743.548 99.15 744.998 99.15 746.398 99.1V93.9H737.598V99.1ZM773.646 103.85C773.646 101.9 775.246 100.7 777.396 100.7H799.496V95.5H776.046C773.896 95.5 773.296 94.05 773.296 92.65C773.296 91.2 773.896 89.8 776.046 89.8H802.446C804.596 89.8 806.196 91 806.196 92.95V103.55C806.196 105.15 804.696 106.3 802.896 106.3H780.346V110.9C780.346 111.25 780.496 111.4 780.746 111.45C782.896 112 786.696 112.3 790.296 112.3C794.296 112.3 799.796 111.65 804.196 110.6C804.546 110.5 804.896 110.45 805.196 110.45C807.046 110.45 808.146 111.9 808.146 113.35C808.146 114.55 807.396 115.7 805.746 116.1C802.046 117.1 797.396 117.7 793.346 117.9V125.1C798.796 124.9 803.846 124.2 808.646 122.95C808.946 122.85 809.296 122.85 809.546 122.85C811.296 122.85 812.396 124.25 812.396 125.7C812.396 126.9 811.696 128.1 809.996 128.55C804.046 130.2 797.246 130.95 789.996 130.95C782.746 130.95 775.946 130.2 769.996 128.55C768.296 128.1 767.596 126.9 767.596 125.7C767.596 124.25 768.696 122.8 770.446 122.8C770.696 122.8 771.046 122.85 771.346 122.95C776.096 124.2 781.246 124.9 786.646 125.1V117.9C783.246 117.75 779.846 117.3 777.196 116.4C774.546 115.5 773.646 113.9 773.646 111.6V103.85ZM837.994 111.8C828.794 111.8 821.444 107.6 821.444 100.05C821.444 92.5 828.794 88.3 837.994 88.3C847.194 88.3 854.544 92.5 854.544 100.05C854.544 107.6 847.194 111.8 837.994 111.8ZM815.594 116.35C815.594 114.9 816.694 113.45 818.444 113.45C818.694 113.45 819.044 113.5 819.344 113.6C825.094 115.1 831.344 115.8 837.994 115.8C844.694 115.8 850.894 115.1 856.644 113.6C856.944 113.5 857.294 113.5 857.544 113.5C859.294 113.5 860.394 114.9 860.394 116.35C860.394 117.55 859.694 118.75 857.994 119.2C852.994 120.6 847.344 121.35 841.344 121.55V133.6C841.344 135.6 839.694 136.6 837.994 136.6C836.344 136.6 834.644 135.6 834.644 133.6V121.55C828.644 121.35 822.994 120.6 817.994 119.2C816.294 118.75 815.594 117.55 815.594 116.35ZM828.044 100.05C828.044 104.1 832.394 106.1 837.994 106.1C843.594 106.1 847.944 104.1 847.944 100.05C847.944 96 843.594 94 837.994 94C832.394 94 828.044 96 828.044 100.05Z" fill="#FF5858"/>
<path d="M754 147.002C751.663 140.715 746.522 139.961 741.537 147.002C739.475 149.914 735.305 154.545 729.853 147.002C727.242 143.39 721.596 138.955 716.611 147.002C714.792 149.937 709.912 155.048 704.926 147.002C702.893 143.719 697.448 139.961 692.463 147.002C690.126 150.774 684.362 156.054 680 147.002" stroke="#FFA495" stroke-width="5" stroke-linecap="round"/>
<path d="M828 147.002C825.663 140.715 820.522 139.961 815.537 147.002C813.475 149.914 809.305 154.545 803.853 147.002C801.242 143.39 795.596 138.955 790.611 147.002C788.792 149.937 783.912 155.048 778.926 147.002C776.893 143.719 771.448 139.961 766.463 147.002C764.126 150.774 758.362 156.054 754 147.002" stroke="#FFA495" stroke-width="5" stroke-linecap="round"/>
<path d="M864.611 147.002C862.792 149.937 857.912 155.048 852.926 147.002C850.893 143.719 845.448 139.961 840.463 147.002C838.126 150.774 832.362 156.054 828 147.002" stroke="#FFA495" stroke-width="5" stroke-linecap="round"/>
<path d="M752 146.501C749.663 140.844 744.522 140.165 739.537 146.501C737.475 149.122 733.305 153.291 727.853 146.501C725.242 143.251 719.596 139.26 714.611 146.501C712.792 149.144 707.912 153.743 702.926 146.501C700.893 143.547 695.448 140.165 690.463 146.501C688.126 149.896 682.362 154.649 678 146.501" stroke="#FF5858" stroke-width="5" stroke-linecap="round"/>
<path d="M826 146.501C823.663 140.844 818.522 140.165 813.537 146.501C811.475 149.122 807.305 153.291 801.853 146.501C799.242 143.251 793.596 139.26 788.611 146.501C786.792 149.144 781.912 153.743 776.926 146.501C774.893 143.547 769.448 140.165 764.463 146.501C762.126 149.896 756.362 154.649 752 146.501" stroke="#FF5858" stroke-width="5" stroke-linecap="round"/>
<path d="M862.611 146.501C860.792 149.144 855.912 153.743 850.926 146.501C848.893 143.547 843.448 140.165 838.463 146.501C836.126 149.896 830.362 154.649 826 146.501" stroke="#FF5858" stroke-width="5" stroke-linecap="round"/>
<circle cx="62" cy="37" r="100" fill="#FFC6C6"/>
<circle cx="168" cy="17" r="50" fill="#FFA495"/>
<circle cx="78" cy="166" r="90" fill="#F96C85"/>
<circle cx="1522.65" cy="146.654" r="100" transform="rotate(-144.069 1522.65 146.654)" fill="#FFC6C6"/>
<circle cx="1409.83" cy="157.827" r="50" transform="rotate(-144.069 1409.83 157.827)" fill="#FFA495"/>
<circle cx="1526.69" cy="33.6882" r="90" transform="rotate(-144.069 1526.69 33.6882)" fill="#F96C85"/>
<path d="M453.262 47.9167L448.623 37.2355C448.515 36.8033 448.357 35.8501 448.586 35.4951L449.503 34.2981C450.439 34.1846 452.691 34.1751 454.219 35.0447C455.802 35.5835 458.581 36.5813 459.732 37.1552C459.841 36.9486 459.951 36.7434 460.062 36.5402C459.684 34.326 459.308 30.6759 459.928 28.3335L459.936 22.1018L460.962 21.3371C463.662 22.9589 469.73 26.8552 472.397 29.4658C472.961 25.4946 474.232 17.9533 474.801 19.5585L476.078 19.0042C477.564 20.0357 481.148 23.0304 483.597 26.7576L485.377 29.0185C485.288 29.1412 485.192 29.27 485.091 29.4043C485.249 29.2858 485.386 29.1516 485.5 29C486.296 29.804 487.289 32.6861 487.274 33.385C485.266 36.5567 481.408 39.5521 479.731 40.6533C475.991 43.8102 473.176 45.4164 472.235 45.8248C469.803 47.1367 466.34 48.4915 464.913 49.0048C462.763 49.9384 460.265 50.4377 459.285 50.5707C457.033 50.9739 455.384 50.535 454.841 50.2652C454.52 50.1095 453.648 48.5697 453.348 47.9368C453.319 47.9305 453.29 47.9238 453.262 47.9167Z" fill="#F29E28"/>
<path d="M453.262 47.9167L448.623 37.2355C448.515 36.8033 448.357 35.8501 448.586 35.4951L449.503 34.2981C450.439 34.1846 452.691 34.1751 454.219 35.0447C456.28 35.7464 460.373 37.2269 460.251 37.5352C459.841 35.6107 459.203 31.0759 459.928 28.3335L459.936 22.1018L460.962 21.3371C463.662 22.9589 469.73 26.8552 472.397 29.4658C472.961 25.4946 474.232 17.9533 474.801 19.5585L476.078 19.0042C477.564 20.0357 481.148 23.0304 483.597 26.7576L485.377 29.0185C483.193 32.0167 477.367 38.6298 471.539 41.0967C466.763 43.7035 456.42 48.7169 453.262 47.9167ZM453.5 48C452.596 46.6055 454.355 50.029 454.841 50.2652C455.384 50.535 457.033 50.9739 459.285 50.5707C460.265 50.4377 462.763 49.9384 464.913 49.0048C466.34 48.4915 469.803 47.1367 472.235 45.8248C473.176 45.4164 475.991 43.8102 479.731 40.6533C481.408 39.5521 485.266 36.5567 487.274 33.385C487.289 32.6861 486.296 29.804 485.5 29C483.156 32.1207 471.019 27.886 465 30.5C459.893 32.9577 455.535 48.7134 453.5 48Z" stroke="#F29E28"/>
<path d="M448.739 31.8826C449.385 32.2357 449.682 33.2849 449.111 34.3285C448.54 35.3721 447.496 35.6872 446.85 35.3341C446.205 34.981 445.908 33.9318 446.479 32.8882C447.05 31.8445 448.094 31.5294 448.739 31.8826Z" fill="#F29E28" stroke="#F29E28"/>
<path d="M461.188 19.3705C461.534 20.0744 461.207 21.0325 460.322 21.4676C459.437 21.9027 458.479 21.5761 458.133 20.8722C457.787 20.1683 458.114 19.2103 458.999 18.7751C459.884 18.34 460.842 18.6667 461.188 19.3705Z" fill="#F29E28" stroke="#F29E28"/>
<path d="M476.477 15.7128C477.044 16.8665 476.606 18.1868 475.58 18.6911C474.554 19.1954 473.241 18.7361 472.674 17.5824C472.107 16.4287 472.545 15.1084 473.571 14.6041C474.597 14.0998 475.91 14.5591 476.477 15.7128Z" fill="#F29E28" stroke="#F29E28"/>
<path d="M450.411 49.6909C460.706 46.5252 482.836 37.0255 489.12 26.3977" stroke="white"/>
</g>
<defs>
<clipPath id="clip0_783_3985">
<rect width="1600" height="180" rx="20" fill="white"/>
</clipPath>
</defs>
</svg>
