<svg width="131" height="26" viewBox="0 0 131 26" fill="none" xmlns="http://www.w3.org/2000/svg">
<g clip-path="url(#clip0_389_883)">
<path d="M17.0125 9.85521H12.2333V0.5H17.0125C19.5916 0.5 21.6895 2.59792 21.6895 5.17708C21.6895 7.75625 19.5916 9.85521 17.0125 9.85521ZM13.7656 8.32292H17.0125C18.7468 8.32292 20.1572 6.91146 20.1572 5.17812C20.1572 3.44479 18.7458 2.03333 17.0125 2.03333H13.7656V8.32292ZM13.7656 9.85521H8.98745C6.40828 9.85521 4.31037 7.75729 4.31037 5.17812C4.31037 2.59896 6.40828 0.5 8.98745 0.5H13.7666V9.85521H13.7656ZM8.98745 2.03229C7.25308 2.03229 5.84266 3.44375 5.84266 5.17708C5.84266 6.91042 7.25308 8.32292 8.98745 8.32292H12.2343V2.03229H8.98745ZM13.7656 17.6771H8.98745C6.40828 17.6771 4.31037 15.5792 4.31037 13C4.31037 10.4208 6.40828 8.32292 8.98745 8.32292H13.7666V17.6771H13.7656ZM8.98745 9.85521C7.25308 9.85521 5.84266 11.2667 5.84266 13C5.84266 14.7333 7.25412 16.1448 8.98745 16.1448H12.2343V9.85521H8.98745ZM9.01245 25.5C6.41974 25.5 4.30933 23.4021 4.30933 20.8229C4.30933 18.2437 6.40724 16.1458 8.98641 16.1458H13.7656V20.7719C13.7656 23.3792 11.6333 25.5 9.01245 25.5ZM8.98745 17.6771C8.15374 17.6782 7.35449 18.0099 6.76496 18.5994C6.17544 19.1889 5.84376 19.9882 5.84266 20.8219C5.84266 22.5562 7.26453 23.9667 9.01349 23.9667C10.7895 23.9667 12.2354 22.5333 12.2354 20.7708V17.6771H8.98745ZM17.0125 17.6771H16.9104C14.3312 17.6771 12.2333 15.5792 12.2333 13C12.2333 10.4208 14.3312 8.32292 16.9104 8.32292H17.0125C19.5916 8.32292 21.6895 10.4208 21.6895 13C21.6895 15.5792 19.5916 17.6771 17.0125 17.6771ZM16.9114 9.85521C15.177 9.85521 13.7666 11.2667 13.7666 13C13.7666 14.7333 15.1781 16.1448 16.9114 16.1448H17.0135C18.7479 16.1448 20.1583 14.7333 20.1583 13C20.1583 11.2667 18.7458 9.85521 17.0125 9.85521H16.9114Z" fill="white"/>
</g>
<path d="M58.9375 12.9316C58.9375 12.8779 58.9375 12.8169 58.9351 12.7461C58.9326 12.5483 58.9277 12.3262 58.9229 12.0894C58.9033 11.4082 58.8691 10.7295 58.8154 10.0898C58.7422 9.2085 58.6348 8.47363 58.4883 7.92187C58.3337 7.34607 58.0307 6.82092 57.6095 6.39892C57.1884 5.97692 56.6639 5.67284 56.0884 5.51709C55.3975 5.33154 54.0449 5.2168 52.1406 5.146C51.2349 5.11182 50.2656 5.08984 49.2964 5.07764C48.957 5.07275 48.6421 5.07031 48.3589 5.06787H47.6411C47.3579 5.07031 47.043 5.07275 46.7036 5.07764C45.7344 5.08984 44.7651 5.11182 43.8594 5.146C41.9551 5.21924 40.6001 5.33398 39.9116 5.51709C39.3359 5.67246 38.8112 5.9764 38.39 6.39847C37.9688 6.82053 37.6659 7.34588 37.5117 7.92187C37.3628 8.47363 37.2578 9.2085 37.1846 10.0898C37.1309 10.7295 37.0967 11.4082 37.0771 12.0894C37.0698 12.3262 37.0674 12.5483 37.0649 12.7461C37.0649 12.8169 37.0625 12.8779 37.0625 12.9316V13.0684C37.0625 13.1221 37.0625 13.1831 37.0649 13.2539C37.0674 13.4517 37.0723 13.6738 37.0771 13.9106C37.0967 14.5918 37.1309 15.2705 37.1846 15.9102C37.2578 16.7915 37.3652 17.5264 37.5117 18.0781C37.8242 19.2476 38.7422 20.1704 39.9116 20.4829C40.6001 20.6685 41.9551 20.7832 43.8594 20.854C44.7651 20.8882 45.7344 20.9102 46.7036 20.9224C47.043 20.9272 47.3579 20.9297 47.6411 20.9321H48.3589C48.6421 20.9297 48.957 20.9272 49.2964 20.9224C50.2656 20.9102 51.2349 20.8882 52.1406 20.854C54.0449 20.7808 55.3999 20.666 56.0884 20.4829C57.2578 20.1704 58.1758 19.25 58.4883 18.0781C58.6372 17.5264 58.7422 16.7915 58.8154 15.9102C58.8691 15.2705 58.9033 14.5918 58.9229 13.9106C58.9302 13.6738 58.9326 13.4517 58.9351 13.2539C58.9351 13.1831 58.9375 13.1221 58.9375 13.0684V12.9316ZM57.1797 13.0586C57.1797 13.1099 57.1797 13.166 57.1772 13.2319C57.1748 13.4224 57.1699 13.6323 57.165 13.8594C57.1479 14.5088 57.1138 15.1582 57.0625 15.7612C56.9966 16.5474 56.9038 17.1919 56.7891 17.624C56.6377 18.188 56.1934 18.6348 55.6318 18.7837C55.1191 18.9204 53.8276 19.0303 52.0723 19.0962C51.1836 19.1304 50.2266 19.1523 49.272 19.1646C48.9375 19.1694 48.6274 19.1719 48.3491 19.1719H47.6509L46.728 19.1646C45.7734 19.1523 44.8188 19.1304 43.9277 19.0962C42.1724 19.0278 40.8784 18.9204 40.3682 18.7837C39.8066 18.6323 39.3623 18.188 39.2109 17.624C39.0962 17.1919 39.0034 16.5474 38.9375 15.7612C38.8862 15.1582 38.8545 14.5088 38.835 13.8594C38.8276 13.6323 38.8252 13.4199 38.8228 13.2319C38.8228 13.166 38.8203 13.1074 38.8203 13.0586V12.9414C38.8203 12.8901 38.8203 12.834 38.8228 12.7681C38.8252 12.5776 38.8301 12.3677 38.835 12.1406C38.8521 11.4912 38.8862 10.8418 38.9375 10.2388C39.0034 9.45264 39.0962 8.80811 39.2109 8.37598C39.3623 7.81201 39.8066 7.36523 40.3682 7.21631C40.8809 7.07959 42.1724 6.96973 43.9277 6.90381C44.8164 6.86963 45.7734 6.84766 46.728 6.83545C47.0625 6.83057 47.3726 6.82813 47.6509 6.82813H48.3491L49.272 6.83545C50.2266 6.84766 51.1812 6.86963 52.0723 6.90381C53.8276 6.97217 55.1216 7.07959 55.6318 7.21631C56.1934 7.36768 56.6377 7.81201 56.7891 8.37598C56.9038 8.80811 56.9966 9.45264 57.0625 10.2388C57.1138 10.8418 57.1455 11.4912 57.165 12.1406C57.1724 12.3677 57.1748 12.5801 57.1772 12.7681C57.1772 12.834 57.1797 12.8926 57.1797 12.9414V13.0586ZM45.8271 16.2715L51.4912 12.9756L45.8271 9.72852V16.2715Z" fill="white"/>
<path d="M82.9999 2.5835C81.632 2.5835 80.2774 2.85293 79.0136 3.37642C77.7498 3.8999 76.6015 4.66719 75.6342 5.63447C73.6807 7.58797 72.5833 10.2375 72.5833 13.0002C72.5833 17.6043 75.5728 21.5106 79.7083 22.896C80.2291 22.9793 80.3958 22.6564 80.3958 22.3752V20.6147C77.5103 21.2397 76.8958 19.2189 76.8958 19.2189C76.4166 18.0106 75.7395 17.6877 75.7395 17.6877C74.7916 17.0418 75.8124 17.0627 75.8124 17.0627C76.8541 17.1356 77.4062 18.1356 77.4062 18.1356C78.3124 19.7189 79.8437 19.2502 80.4374 19.0002C80.5312 18.3231 80.802 17.8647 81.0937 17.6043C78.7812 17.3439 76.3541 16.4481 76.3541 12.4793C76.3541 11.3231 76.7499 10.396 77.427 9.65641C77.3228 9.396 76.9583 8.31266 77.5312 6.90641C77.5312 6.90641 78.4062 6.62516 80.3958 7.96891C81.2187 7.73975 82.1145 7.62516 82.9999 7.62516C83.8853 7.62516 84.7812 7.73975 85.6041 7.96891C87.5937 6.62516 88.4687 6.90641 88.4687 6.90641C89.0416 8.31266 88.677 9.396 88.5728 9.65641C89.2499 10.396 89.6458 11.3231 89.6458 12.4793C89.6458 16.4585 87.2083 17.3335 84.8853 17.5939C85.2603 17.9168 85.6041 18.5522 85.6041 19.521V22.3752C85.6041 22.6564 85.7708 22.9897 86.302 22.896C90.4374 21.5002 93.4166 17.6043 93.4166 13.0002C93.4166 11.6322 93.1472 10.2777 92.6237 9.01388C92.1002 7.75007 91.3329 6.60174 90.3656 5.63447C89.3983 4.66719 88.25 3.8999 86.9862 3.37642C85.7224 2.85293 84.3679 2.5835 82.9999 2.5835Z" fill="white"/>
<path d="M118.001 9.87516C117.172 9.87516 116.377 10.2044 115.791 10.7905C115.205 11.3765 114.876 12.1714 114.876 13.0002C114.876 13.829 115.205 14.6238 115.791 15.2099C116.377 15.7959 117.172 16.1252 118.001 16.1252C118.83 16.1252 119.625 15.7959 120.211 15.2099C120.797 14.6238 121.126 13.829 121.126 13.0002C121.126 12.1714 120.797 11.3765 120.211 10.7905C119.625 10.2044 118.83 9.87516 118.001 9.87516ZM118.001 7.79183C119.382 7.79183 120.707 8.34056 121.684 9.31731C122.661 10.2941 123.209 11.6188 123.209 13.0002C123.209 14.3815 122.661 15.7063 121.684 16.683C120.707 17.6598 119.382 18.2085 118.001 18.2085C116.62 18.2085 115.295 17.6598 114.318 16.683C113.342 15.7063 112.793 14.3815 112.793 13.0002C112.793 11.6188 113.342 10.2941 114.318 9.31731C115.295 8.34056 116.62 7.79183 118.001 7.79183ZM124.772 7.53141C124.772 7.87675 124.635 8.20794 124.391 8.45212C124.146 8.69631 123.815 8.8335 123.47 8.8335C123.125 8.8335 122.793 8.69631 122.549 8.45212C122.305 8.20794 122.168 7.87675 122.168 7.53141C122.168 7.18608 122.305 6.85489 122.549 6.6107C122.793 6.36651 123.125 6.22933 123.47 6.22933C123.815 6.22933 124.146 6.36651 124.391 6.6107C124.635 6.85489 124.772 7.18608 124.772 7.53141ZM118.001 4.66683C115.424 4.66683 115.003 4.67412 113.804 4.72725C112.988 4.76579 112.44 4.87516 111.931 5.07308C111.506 5.22926 111.121 5.4796 110.806 5.80537C110.48 6.12037 110.23 6.50494 110.073 6.93037C109.875 7.44079 109.766 7.98766 109.728 8.80329C109.674 9.95329 109.667 10.3554 109.667 13.0002C109.667 15.5783 109.674 15.9981 109.727 17.197C109.766 18.0127 109.875 18.5616 110.072 19.0689C110.249 19.522 110.457 19.8481 110.803 20.1939C111.154 20.5439 111.48 20.7533 111.928 20.9262C112.443 21.1252 112.991 21.2356 113.803 21.2731C114.953 21.3272 115.355 21.3335 118 21.3335C120.578 21.3335 120.998 21.3262 122.197 21.2731C123.012 21.2345 123.559 21.1252 124.069 20.9283C124.494 20.7713 124.878 20.5211 125.194 20.196C125.545 19.846 125.754 19.52 125.927 19.071C126.125 18.5585 126.236 18.0106 126.273 17.196C126.327 16.047 126.333 15.6439 126.333 13.0002C126.333 10.4231 126.326 10.0022 126.273 8.80329C126.234 7.9887 126.124 7.4387 125.927 6.93037C125.77 6.50539 125.52 6.12098 125.195 5.80537C124.88 5.47917 124.495 5.22846 124.07 5.07204C123.559 4.87412 123.012 4.76475 122.197 4.72725C121.048 4.67308 120.647 4.66683 118.001 4.66683ZM118.001 2.5835C120.831 2.5835 121.184 2.59391 122.296 2.646C123.404 2.69808 124.161 2.87204 124.824 3.13037C125.512 3.39495 126.091 3.75329 126.67 4.33141C127.2 4.85214 127.609 5.48203 127.871 6.17725C128.128 6.84079 128.303 7.59704 128.355 8.70641C128.404 9.81683 128.418 10.17 128.418 13.0002C128.418 15.8304 128.407 16.1835 128.355 17.2939C128.303 18.4033 128.128 19.1585 127.871 19.8231C127.61 20.5187 127.2 21.1487 126.67 21.6689C126.149 22.1984 125.519 22.6082 124.824 22.87C124.161 23.1272 123.404 23.3022 122.296 23.3543C121.184 23.4033 120.831 23.4168 118.001 23.4168C115.171 23.4168 114.818 23.4064 113.706 23.3543C112.598 23.3022 111.843 23.1272 111.178 22.87C110.483 22.609 109.853 22.1991 109.332 21.6689C108.803 21.1483 108.393 20.5183 108.131 19.8231C107.873 19.1595 107.699 18.4033 107.647 17.2939C107.597 16.1835 107.584 15.8304 107.584 13.0002C107.584 10.17 107.595 9.81683 107.647 8.70641C107.699 7.596 107.873 6.84183 108.131 6.17725C108.392 5.4816 108.802 4.85154 109.332 4.33141C109.853 3.80145 110.483 3.39155 111.178 3.13037C111.842 2.87204 112.597 2.69808 113.706 2.646C114.818 2.59704 115.171 2.5835 118.001 2.5835Z" fill="white"/>
<defs>
<clipPath id="clip0_389_883">
<rect width="25" height="25" fill="white" transform="translate(0.5 0.5)"/>
</clipPath>
</defs>
</svg>
