<svg width="10" height="22" viewBox="0 0 10 22" fill="none" xmlns="http://www.w3.org/2000/svg">
<path d="M9.73127 2.16665C9.81711 2.06527 9.88422 1.94602 9.92876 1.81569C9.97331 1.68537 9.99442 1.54653 9.99088 1.40711C9.98735 1.26768 9.95924 1.1304 9.90816 1.00309C9.85709 0.875788 9.78405 0.760957 9.69321 0.665157C9.60237 0.569356 9.49551 0.494462 9.37873 0.44475C9.26196 0.395037 9.13755 0.371481 9.01262 0.375425C8.88768 0.379369 8.76467 0.410737 8.6506 0.467737C8.53653 0.524737 8.43363 0.606253 8.34779 0.707632L0.260084 10.2645C0.0930622 10.4617 0 10.7227 0 10.994C0 11.2654 0.0930622 11.5264 0.260084 11.7235L8.34779 21.2815C8.43307 21.3851 8.53594 21.4688 8.65043 21.5276C8.76492 21.5865 8.88875 21.6193 9.01472 21.6243C9.14069 21.6293 9.2663 21.6063 9.38424 21.5567C9.50219 21.5071 9.61012 21.4318 9.70177 21.3352C9.79342 21.2386 9.86696 21.1227 9.91811 20.9941C9.96927 20.8655 9.99703 20.7269 9.99977 20.5862C10.0025 20.4456 9.9802 20.3058 9.9341 20.1748C9.88801 20.0439 9.81906 19.9245 9.73127 19.8235L2.26013 10.994L9.73127 2.16665Z" fill="black"/>
</svg>
