<svg width="20" height="44" viewBox="0 0 20 44" fill="none" xmlns="http://www.w3.org/2000/svg">
<path d="M19.4625 4.3333C19.6342 4.13054 19.7684 3.89203 19.8575 3.63139C19.9466 3.37074 19.9888 3.09307 19.9818 2.81421C19.9747 2.53536 19.9185 2.26079 19.8163 2.00618C19.7142 1.75158 19.5681 1.52191 19.3864 1.33031C19.2047 1.13871 18.991 0.988924 18.7575 0.889499C18.5239 0.790075 18.2751 0.742961 18.0252 0.75085C17.7754 0.758738 17.5293 0.821473 17.3012 0.935474C17.0731 1.04947 16.8673 1.21251 16.6956 1.41526L0.520168 20.529C0.186124 20.9234 0 21.4454 0 21.9881C0 22.5307 0.186124 23.0528 0.520168 23.4471L16.6956 42.563C16.8661 42.7702 17.0719 42.9375 17.3009 43.0552C17.5298 43.1729 17.7775 43.2387 18.0294 43.2487C18.2814 43.2587 18.5326 43.2127 18.7685 43.1134C19.0044 43.0141 19.2202 42.8635 19.4035 42.6704C19.5868 42.4772 19.7339 42.2453 19.8362 41.9882C19.9385 41.731 19.9941 41.4538 19.9995 41.1725C20.005 40.8912 19.9604 40.6115 19.8682 40.3496C19.776 40.0878 19.6381 39.849 19.4625 39.6471L4.52025 21.9881L19.4625 4.3333Z" fill="white"/>
</svg>
