<svg width="53" height="54" viewBox="0 0 53 54" fill="none" xmlns="http://www.w3.org/2000/svg">
<path d="M37.7271 6.5H33.2271C29.8937 9 23.0271 14.5 22.2271 16.5L14.7271 24V29.4757C14.8007 29.5665 14.7903 29.5632 14.7271 29.5V29.4757C14.4122 29.0877 12.5615 26.9827 6.72705 20.5L6.22705 15.5L21.7271 2L30.2271 2.5L37.7271 6.5Z" fill="#F96C85" stroke="#F96C85" stroke-width="2" stroke-linecap="round"/>
<path d="M46.7729 38V33.5C44.2729 30.1667 38.7729 23.3 36.7729 22.5L29.2729 15H23.7973C23.7065 15.0737 23.7097 15.0632 23.7729 15H23.7973C24.1852 14.6852 26.2903 12.8344 32.7729 7L37.7729 6.5L51.2729 22L50.7729 30.5L46.7729 38Z" fill="#FFC6C6" stroke="#FFC6C6" stroke-width="2" stroke-linecap="round"/>
<path d="M14.7271 47.5459H19.2271C22.5604 45.0459 29.4271 39.5459 30.2271 37.5459L37.7271 30.0459V24.5702C37.6534 24.4794 37.6638 24.4827 37.7271 24.5459V24.5702C38.0419 24.9582 39.8926 27.0632 45.7271 33.5459L46.2271 38.5459L30.7271 52.0459L22.2271 51.5459L14.7271 47.5459Z" fill="#FF7878" stroke="#FF7878" stroke-width="2" stroke-linecap="round"/>
<path d="M6.22705 15.5L6.22705 20C8.72705 23.3333 14.2271 30.2 16.2271 31L23.7271 38.5H29.2027C29.2935 38.4263 29.2903 38.4368 29.2271 38.5H29.2027C28.8148 38.8148 26.7097 40.6656 20.2271 46.5L15.2271 47L1.72705 31.5L2.22705 23L6.22705 15.5Z" fill="#FF5858" stroke="#FF5858" stroke-width="2" stroke-linecap="round"/>
</svg>
