<svg width="17" height="16" viewBox="0 0 17 16" fill="none" xmlns="http://www.w3.org/2000/svg">
<path d="M8.41667 12.9583L8.33333 13.0417L8.24167 12.9583C4.28333 9.36667 1.66667 6.99167 1.66667 4.58333C1.66667 2.91667 2.91667 1.66667 4.58333 1.66667C5.86667 1.66667 7.11667 2.5 7.55833 3.63333H9.10833C9.55 2.5 10.8 1.66667 12.0833 1.66667C13.75 1.66667 15 2.91667 15 4.58333C15 6.99167 12.3833 9.36667 8.41667 12.9583ZM12.0833 0C10.6333 0 9.24167 0.675 8.33333 1.73333C7.425 0.675 6.03333 0 4.58333 0C2.01667 0 0 2.00833 0 4.58333C0 7.725 2.83333 10.3 7.125 14.1917L8.33333 15.2917L9.54167 14.1917C13.8333 10.3 16.6667 7.725 16.6667 4.58333C16.6667 2.00833 14.65 0 12.0833 0Z" fill="#E20177"/>
</svg>
