<svg width="19" height="13" viewBox="0 0 19 13" fill="none" xmlns="http://www.w3.org/2000/svg">
<path d="M9.83341 4.0459C10.4965 4.0459 11.1323 4.30929 11.6012 4.77813C12.07 5.24697 12.3334 5.88286 12.3334 6.5459C12.3334 7.20894 12.07 7.84482 11.6012 8.31367C11.1323 8.78251 10.4965 9.0459 9.83341 9.0459C9.17037 9.0459 8.53449 8.78251 8.06565 8.31367C7.59681 7.84482 7.33341 7.20894 7.33341 6.5459C7.33341 5.88286 7.59681 5.24697 8.06565 4.77813C8.53449 4.30929 9.17037 4.0459 9.83341 4.0459ZM9.83341 0.295898C14.0001 0.295898 17.5584 2.88757 19.0001 6.5459C17.5584 10.2042 14.0001 12.7959 9.83341 12.7959C5.66675 12.7959 2.10841 10.2042 0.666748 6.5459C2.10841 2.88757 5.66675 0.295898 9.83341 0.295898ZM2.48341 6.5459C3.15696 7.92115 4.20284 9.07985 5.50215 9.89028C6.80146 10.7007 8.30208 11.1303 9.83341 11.1303C11.3648 11.1303 12.8654 10.7007 14.1647 9.89028C15.464 9.07985 16.5099 7.92115 17.1834 6.5459C16.5099 5.17064 15.464 4.01194 14.1647 3.20152C12.8654 2.3911 11.3648 1.96147 9.83341 1.96147C8.30208 1.96147 6.80146 2.3911 5.50215 3.20152C4.20284 4.01194 3.15696 5.17064 2.48341 6.5459Z" fill="#ABABAB"/>
</svg>
