<svg width="13" height="13" viewBox="0 0 13 13" fill="none" xmlns="http://www.w3.org/2000/svg">
<path fill-rule="evenodd" clip-rule="evenodd" d="M3.47222 3.07368C3.47222 2.33696 3.76488 1.63042 4.28581 1.10949C4.80675 0.588556 5.51329 0.295898 6.25 0.295898C6.98671 0.295898 7.69325 0.588556 8.21419 1.10949C8.73512 1.63042 9.02778 2.33696 9.02778 3.07368C9.02778 3.81039 8.73512 4.51693 8.21419 5.03786C7.69325 5.5588 6.98671 5.85145 6.25 5.85145C5.51329 5.85145 4.80675 5.5588 4.28581 5.03786C3.76488 4.51693 3.47222 3.81039 3.47222 3.07368ZM3.47222 7.24034C2.55133 7.24034 1.66816 7.60616 1.01699 8.25733C0.365822 8.9085 0 9.79167 0 10.7126C0 11.2651 0.219493 11.795 0.610194 12.1857C1.0009 12.5764 1.5308 12.7959 2.08333 12.7959H10.4167C10.9692 12.7959 11.4991 12.5764 11.8898 12.1857C12.2805 11.795 12.5 11.2651 12.5 10.7126C12.5 9.79167 12.1342 8.9085 11.483 8.25733C10.8318 7.60616 9.94867 7.24034 9.02778 7.24034H3.47222Z" fill="#ABABAB"/>
</svg>
