<svg width="35" height="35" viewBox="0 0 35 35" fill="none" xmlns="http://www.w3.org/2000/svg">
<rect width="35" height="35" rx="17.5" fill="#D9D9D9"/>
<path fill-rule="evenodd" clip-rule="evenodd" d="M11.6667 16.3333C11.6667 14.9188 12.2286 13.5623 13.2288 12.5621C14.229 11.5619 15.5855 11 17 11C18.4145 11 19.771 11.5619 20.7712 12.5621C21.7714 13.5623 22.3333 14.9188 22.3333 16.3333C22.3333 17.7478 21.7714 19.1044 20.7712 20.1046C19.771 21.1048 18.4145 21.6667 17 21.6667C15.5855 21.6667 14.229 21.1048 13.2288 20.1046C12.2286 19.1044 11.6667 17.7478 11.6667 16.3333ZM11.6667 24.3333C9.89856 24.3333 8.20286 25.0357 6.95262 26.286C5.70238 27.5362 5 29.2319 5 31C5 32.0609 5.42143 33.0783 6.17157 33.8284C6.92172 34.5786 7.93913 35 9 35H25C26.0609 35 27.0783 34.5786 27.8284 33.8284C28.5786 33.0783 29 32.0609 29 31C29 29.2319 28.2976 27.5362 27.0474 26.286C25.7971 25.0357 24.1014 24.3333 22.3333 24.3333H11.6667Z" fill="#EEEEEE"/>
</svg>
