<svg width="20" height="44" viewBox="0 0 20 44" fill="none" xmlns="http://www.w3.org/2000/svg">
<path d="M0.537466 4.3333C0.365782 4.13054 0.231564 3.89203 0.142475 3.63139C0.0533848 3.37074 0.0111675 3.09307 0.0182362 2.81421C0.0253048 2.53536 0.0815201 2.26079 0.18367 2.00618C0.28582 1.75158 0.431906 1.52191 0.613585 1.33031C0.795265 1.13871 1.00898 0.988924 1.24254 0.889499C1.47609 0.790075 1.7249 0.742961 1.97476 0.75085C2.22463 0.758738 2.47066 0.821473 2.6988 0.935474C2.92694 1.04947 3.13273 1.21251 3.30441 1.41526L19.4798 20.529C19.8139 20.9234 20 21.4454 20 21.9881C20 22.5307 19.8139 23.0528 19.4798 23.4471L3.30441 42.563C3.13386 42.7702 2.92812 42.9375 2.69914 43.0552C2.47016 43.1729 2.22251 43.2387 1.97056 43.2487C1.71861 43.2587 1.4674 43.2127 1.23151 43.1134C0.995625 43.0141 0.779762 42.8635 0.596464 42.6704C0.413168 42.4772 0.266088 42.2453 0.163773 41.9882C0.0614548 41.731 0.00593948 41.4538 0.000452042 41.1725C-0.00503731 40.8912 0.039608 40.6115 0.131796 40.3496C0.223984 40.0878 0.361877 39.849 0.537466 39.6471L15.4797 21.9881L0.537466 4.3333Z" fill="white"/>
</svg>
