<svg width="13" height="13" viewBox="0 0 13 13" fill="none" xmlns="http://www.w3.org/2000/svg">
<path d="M11.5278 12.75L7.15278 8.375C6.80556 8.65278 6.40625 8.87268 5.95486 9.03472C5.50347 9.19676 5.02315 9.27778 4.51389 9.27778C3.25231 9.27778 2.18472 8.84074 1.31111 7.96667C0.4375 7.09259 0.000462963 6.025 0 4.76389C0 3.50231 0.437037 2.43472 1.31111 1.56111C2.18519 0.6875 3.25278 0.250463 4.51389 0.25C5.77546 0.25 6.84329 0.687037 7.71736 1.56111C8.59143 2.43519 9.02824 3.50278 9.02778 4.76389C9.02778 5.27315 8.94676 5.75347 8.78472 6.20486C8.62268 6.65625 8.40278 7.05556 8.125 7.40278L12.5 11.7778L11.5278 12.75ZM4.51389 7.88889C5.38194 7.88889 6.11991 7.58518 6.72778 6.97778C7.33565 6.37037 7.63935 5.63241 7.63889 4.76389C7.63889 3.89583 7.33518 3.1581 6.72778 2.55069C6.12037 1.94329 5.38241 1.63935 4.51389 1.63889C3.64583 1.63889 2.9081 1.94282 2.30069 2.55069C1.69329 3.15856 1.38935 3.8963 1.38889 4.76389C1.38889 5.63194 1.69282 6.36991 2.30069 6.97778C2.90856 7.58565 3.6463 7.88935 4.51389 7.88889Z" fill="#ABABAB"/>
</svg>
