<svg width="7" height="7" viewBox="0 0 7 7" fill="none" xmlns="http://www.w3.org/2000/svg">
<g clip-path="url(#clip0_430_1406)">
<path d="M3.49286 5.57055C3.51795 5.607 3.55153 5.6368 3.5907 5.65739C3.62987 5.67798 3.67345 5.68874 3.7177 5.68874C3.76195 5.68874 3.80554 5.67798 3.84471 5.65739C3.88388 5.6368 3.91746 5.607 3.94255 5.57055L6.40439 2.01435C6.43289 1.97333 6.4496 1.92529 6.45271 1.87544C6.45582 1.82559 6.44521 1.77584 6.42203 1.7316C6.39885 1.68736 6.364 1.65032 6.32125 1.6245C6.2785 1.59868 6.22949 1.58507 6.17954 1.58514H1.25586C1.20604 1.58535 1.15721 1.59914 1.11463 1.62502C1.07205 1.6509 1.03733 1.6879 1.01421 1.73204C0.991088 1.77618 0.980434 1.82579 0.983395 1.87553C0.986355 1.92527 1.00282 1.97327 1.03101 2.01435L3.49286 5.57055Z" fill="white"/>
</g>
<defs>
<clipPath id="clip0_430_1406">
<rect width="6.56491" height="6.5653" fill="white" transform="translate(0.435059 0.217346)"/>
</clipPath>
</defs>
</svg>
