<svg width="100" height="31" viewBox="0 0 100 31" fill="none" xmlns="http://www.w3.org/2000/svg">
<path d="M92.3281 5.70517C91.5344 7.02792 89.7884 7.18665 88.0953 5.70517C87.395 5.09247 85.9789 4.11788 84.127 5.70518C83.2405 6.46506 81.3228 7.39828 79.6297 5.70517C79.0119 5.08745 77.3545 4.01203 75.6614 5.70517C74.9707 6.39587 73.1217 7.18663 71.4286 5.70517C70.635 4.91151 68.6773 3.80039 67.1958 5.70517" stroke="#F96C85" stroke-linecap="round"/>
<path d="M92.3281 9.13785C91.5344 10.4606 89.7884 10.6193 88.0953 9.13785C87.395 8.52514 85.9789 7.55056 84.127 9.13786C83.2405 9.89774 81.3228 10.831 79.6297 9.13785C79.0119 8.52013 77.3545 7.44471 75.6614 9.13785C74.9707 9.82855 73.1217 10.6193 71.4286 9.13785C70.635 8.34419 68.6773 7.23307 67.1958 9.13785" stroke="#FFA495" stroke-linecap="round"/>
<path d="M50.2646 13.1189C50.2646 10.4734 49.4709 6.24074 56.8783 7.03423M47.09 13.1189H54.2328" stroke="#F96C85" stroke-width="3" stroke-linecap="round"/>
<path d="M50.2645 13.119V24.2302" stroke="#F96C85" stroke-width="3" stroke-linecap="round"/>
<path d="M58.201 6.76984V21.0556C58.201 22.1138 58.9418 24.1243 61.9048 23.7011" stroke="#F96C85" stroke-width="3" stroke-linecap="round"/>
<path d="M33.3334 11.5317V16.2936M33.3334 23.7011V16.2936M33.3334 16.2936C35.9789 10.7381 42.3281 12.5899 43.3863 16.2936V23.7012" stroke="#F96C85" stroke-width="3" stroke-linecap="round"/>
<rect x="1.5" y="2.44974" width="97" height="26.1005" rx="6.5" stroke="#FF7878" stroke-width="3"/>
<path d="M8.20094 24.4946V11.7962C8.20112 7.82801 10.0529 7.03439 12.9628 6.76971M5.29102 13.119H12.6984" stroke="#F96C85" stroke-width="3" stroke-linecap="round"/>
<path d="M26.5 23.7116V18.9497" stroke="#F96C85" stroke-width="3" stroke-linecap="round"/>
<path d="M26.5424 18.4101C26.5424 21.0882 24.3713 23.2593 21.6932 23.2593C19.0151 23.2593 16.844 21.0882 16.844 18.4101C16.844 15.7319 19.0151 13.5609 21.6932 13.5609C24.3713 13.5609 26.5424 15.7319 26.5424 18.4101Z" stroke="#F96C85" stroke-width="3"/>
<circle cx="70.3704" cy="18.41" r="5.37831" stroke="#F96C85" stroke-width="3"/>
<path d="M79.1006 12.3254L83.0688 23.7011" stroke="#F96C85" stroke-width="3" stroke-linecap="round"/>
<path d="M86.7726 12.3254L83.0688 23.7011" stroke="#F96C85" stroke-width="3" stroke-linecap="round"/>
<path d="M86.7725 12.3254L90.2116 23.7011" stroke="#F96C85" stroke-width="3" stroke-linecap="round"/>
<path d="M90.2117 23.7011L94.4445 12.0609" stroke="#F96C85" stroke-width="3" stroke-linecap="round"/>
</svg>
